<svg xmlns="http://www.w3.org/2000/svg" width="800" height="875" viewBox="0 0 800 875" version="1.1"><clipPath id="a"><path d="M754 183c65 110 54 256 12 378a468 468 0 01-210 269c-97 52-219 61-317 14A442 442 0 0128 569c-39-126-44-274 25-385A420 420 0 01405 0c142-1 284 73 349 183z"><animate dur="15s" keyTimes="0; .183; .513; .843; 1" repeatCount="indefinite" calcMode="spline" attributeName="d" keySplines="0.5 0 0.5 1 ; 0.5 0 0.5 1 ; 0.5 0 0.5 1 ; 0.5 0 0.5 1" values="m 753.86223,182.66361 c 65.06013,109.98154 53.79972,256.6236 12.51156,378.18213 C 724.46006,681.76112 653.14414,777.59299 556.1795,829.68951 459.21488,882.4292 337.22714,891.43354 239.01137,844.48235 140.79559,797.53117 67.602948,693.98129 28.191525,568.56374 -10.594321,442.50304 -15.598947,294.57465 53.214652,183.94994 121.40267,72.682062 262.78334,0.00419764 404.78958,0.00419764 546.79582,-0.6389693 688.8021,72.682062 753.86223,182.66361 Z; M 685.0507,228.98035 C 762.86913,341.88006 815.17333,457.24753 796.03765,562.74398 776.90197,668.85736 686.32642,766.33362 571.51234,823.09194 456.69826,879.23333 317.64565,894.65678 209.84799,845.30172 102.68818,795.94665 26.145463,681.81307 5.734071,563.97785 -14.677321,446.14264 20.404759,325.22273 95.033909,212.32302 170.30092,100.04025 284.47714,-3.605386 393.55051,0.09624384 502.62389,4.414812 607.23227,116.08064 685.0507,228.98035 Z; M 750.96709,166.08148 C 814.4274,267.74636 810.19671,406.71274 772.82564,522.27426 735.45457,637.10438 665.64823,729.26103 564.81685,795.08724 463.98548,860.91342 332.12907,899.67773 224.95167,857.25641 117.06916,814.8351 33.865646,691.22813 8.4815241,558.84436 -16.902597,425.72919 15.532669,284.5686 94.505493,178.51531 173.47832,72.462018 299.69381,2.2474244 428.02464,0.05321834 556.35548,-2.1409877 687.50677,63.685194 750.96709,166.08148 Z; M 667.93364,153.26424 C 750.59739,243.55356 809.1509,370.38855 798.81792,505.10594 788.48495,639.82333 707.88777,782.42313 589.40305,841.89943 470.91831,901.37572 313.85714,876.29536 204.32765,801.77084 95.487011,726.52975 34.866912,600.41133 10.756645,472.14318 -12.664758,343.15844 0.42367319,212.02396 67.243556,124.60097 134.7523,37.177977 254.61477,-5.8169349 367.5886,0.63230196 480.56242,7.0815388 585.95873,62.258343 667.93364,153.26424 Z; m 753.86223,182.66361 c 65.06013,109.98154 53.79972,256.6236 12.51156,378.18213 C 724.46006,681.76112 653.14414,777.59299 556.1795,829.68951 459.21488,882.4292 337.22714,891.43354 239.01137,844.48235 140.79559,797.53117 67.602948,693.98129 28.191525,568.56374 -10.594321,442.50304 -15.598947,294.57465 53.214652,183.94994 121.40267,72.682062 262.78334,0.00419764 404.78958,0.00419764 546.79582,-0.6389693 688.8021,72.682062 753.86223,182.66361 Z"/></path></clipPath><g clip-path="url(#a)"><path fill="rgba(0,0,0,.2)" d="M0 0h800v875H0z"/><path d="M16 861l-7-24 3-24a636 636 0 0131-131c8-18 17-45 22-69a679 679 0 0162-138c4-6 19-21 34-34 38-35 52-41 113-53 12-1 23-5 27-6 6-3 6-3 6 3s-2 7-15 12l-33 10-20 5c-2 1-6 3-10 3-16 4-38 17-52 32-8 8-15 17-16 20s-4 6-5 6c-3 0-16 54-16 69l2 26 2 14h-16l-2-14-3-24c0-10 0-11-5-11l-6-2c0-10-12 15-18 37l-5 11c-4 3-12 26-14 38-2 15-13 46-21 64l-10 27c-5 14-6 18-5 32 2 15 1 17-5 30-6 10-7 16-6 20 5 18 4 22-3 32-8 11-8 13-2 27 5 12 12 24 13 24 2 0 2 3 2 6 0 5-1 5-7 5h-8zm752 21l-3-2c-3 0-4-3-4-13v-14h8l8 2c0 2 3 3 7 3 5 0 6 1 7 4 0 2 0 2 1 1 0-2 3-3 5-3 5 0 5 1 4 8-4 17-3 16-19 16-8 0-14 0-14-2zm-181-26c0-7 0-7 7-7 8 0 8 0 8 7 0 8 0 8-8 8-7 0-7 0-7-8zm205-21l-6-24c-3-4-5-9-5-11s-1-3-2-3l-2-4c0-3-3-5-11-8l-14-4c-3 0-4-1-4-7v-8h12c12 0 12 0 10-4l-2-12c0-5-1-7-6-7-4 0-5-1-5-4l-2-6-4-8-4-6c-3 0-10-14-10-21 0-3-2-4-7-5-7-2-7-2-7-15 0-11 0-13-4-13-3 0-5-2-5-3 0-8-4-3-7 8-2 10-3 11-10 11h-7v-16l2-16 3-5 7-28c5-20 6-27 5-43-2-21-7-38-13-44-2-2-4-6-4-10 0-6-2-9-25-33-10-12-33-30-47-37l-14-9c-4-3-9-5-12-5-11 0-18-3-21-9-2-6-3-21 0-17l24 12c13 5 29 14 36 18 24 16 55 51 79 88 9 16 25 69 35 117a596 596 0 0016 73c4 18 6 24 11 30 9 10 13 17 18 37 5 15 12 54 12 63 0 2-2 4-5 4s-4-3-5-16zm0 0" fill-rule="nonzero" fill="#dcb256" fill-opacity="1"/><path d="M135 622c-4-23-4-24 5-24 8 0 9 1 12 25l1 13h-16zm0 0" fill-rule="nonzero" fill="#dcb256" fill-opacity="1"/><path d="M30 881c-4-5-15-23-13-23l-1-4-4-15c-1-12-1-14 6-23 6-8 7-11 5-14-5-9-3-25 4-39 4-7 6-13 4-13-1 0-2-3-1-9 1-5 1-9-1-9-3-1 8-34 18-58a286 286 0 0022-64 112 112 0 0116-43l1-6 4-11c2-4 3-8 2-9l2-1c1 0 3-4 4-9l5-9a178 178 0 0125-48l3-1c3 2-4 42-6 42s-1 1 1 3c3 1 4 5 4 19l1 17 2-18c0-9 4-28 7-41 5-18 5-24 3-26s-1-3 3-3 6-2 8-6l16-19c14-15 36-29 52-32l10-4 20-5 21-5c9-3 11-3 11 1 0 7-11 13-29 15-16 3-28 7-44 14l-8 3 2 34a1766 1766 0 0015 205 1854 1854 0 0013 119c2 0 7-57 17-178l2-19h14l1 24c2 34-4 116-10 149-2 10-4 28-4 40l-1 23c-1 1-2 5-1 10 0 6-1 9-2 9s-3 4-3 9l-1 20-1 11h-11c-11 0-11 0-11-6 0-5-1-7-4-7s-3-2-2-9c0-6 0-9-2-9-4 0-5-15-2-16 2 0 1-14 0-30l-9-89a3194 3194 0 01-16-247c-1-10-5-13-5-4 0 3-2 6-3 6l-7 5c-3 3-7 6-9 6s-4 1-4 3l-7 17c-6 12-7 15-7 35 0 15 3 31 7 51 4 23 6 34 5 51-1 27-3 33-16 33-8 0-9 0-9-6 0-3 1-9 3-13 2-6 2-10 0-19-2-5-4-18-5-27-1-13-2-17-5-17-3-1-4 1-5 8-1 6-3 9-5 9s-3 2-3 6c0 5-1 5-9 5-9 0-9 1-6 4s9 5 17 5l13 1v10l1 9-10 2c-22 3-21 2-23 14-1 8-2 11-5 12s-5 3-6 5c-3 6-7 10-11 10l-4 2c-1 2-5 2-9 2-7 0-8 1-9 7s0 7 5 7c2 0 5 0 5 2l26 1 25-1v8c-1 6-3 9-7 11-13 7-30 15-33 15l-10 5c-4 3-8 6-10 6-3 0-19 15-18 18 2 4 23 5 37 1l20-4c7 0 8 1 8 8 0 5-1 8-4 9-2 1-1 1 3 1 7 0 7 1 7 8 0 8 0 8-8 8-9 0-9 0-10-7s-1-7-4-4c-3 4-7 4-33 8-11 1-12 2-15 10l-6 12c-3 6-1 7 9 4l38-4 29-2v9l-2 8-9 6c-8 8-6 9 13 3 7-3 16-5 20-5 7 0 8 1 8 8 0 4-2 8-4 9-2 0-3 3-3 6 0 2-2 4-5 4s-4 2-4 7c0 6-1 6-10 6s-10 0-10-4-1-5-4-3l-18 2-14 3c0 4-30 3-33-1zm250 3l6-55 15-156c3-34 3-35 12-35 7 0 7 0 7 11l-2 32a492 492 0 00-4 62c-2 7-3 24-4 38a1057 1057 0 01-7 97c-1 6-1 6-12 6h-11zm303-18v-73l1-81v-27h15l2 34 2 66v31l2-23 4-53 3-30h16l-2 35-2 34h7c6 0 7 1 7 8l-4 24c-3 16-4 17-9 18-4 0-5 0-2 1s4 3 4 9-1 7-6 7c-3 0-5 2-5 4s-2 3-7 3h-7l3 31h-20zm120 16l-2-10c0-8 0-8 8-8 10 0 19 7 19 15 0 5-1 5-11 5l-14-2zm51-4c-4-4-6-8-6-11 0-2-2-6-5-9-2-4-4-10-4-14 0-9 0-9 8-9s26 8 38 17c8 6 8 6 5-13-5-33-26-54-61-62-12-3-13-3-13-11v-8l22 2c25 2 33-1 24-7-3-2-5-6-5-9s-2-6-6-8c-3-1-5-5-6-9l-3-9c-1 0-4-4-6-9-4-9-7-10-9-4-2 4-4 5-10 5-7 0-7 0-7 7 0 6-1 6-8 6l-8-2c0-1-3-2-8-2-7 0-8-1-8-8l5-27c4-16 5-20 3-23-5-8-4-16 3-22 4-4 6-8 7-18 0-7 2-14 3-15 4-2 5-46 2-46-1 0-2-4-2-10s-1-10-2-10l-5-8c-1-5-6-10-9-12-4-2-7-6-7-8 0-9-5-2-6 8-1 11-1 11-8 11h-8l-1-28c-1-28-1-28-8-34-8-7-19-15-34-21l-10-7-13-6c-12-3-13-3-13-11 1-8 1-8 3-4 2 3 5 4 7 4 2-1 4 0 4 1s3 2 7 2l12 4 15 10c16 9 39 27 49 38 20 22 27 31 25 35-1 2 2 6 5 10l6 10c0 2 1 3 2 3s2 1 1 3c-1 1 0 4 2 7s3 6 1 9v4c4 0 1 39-5 63a1653 1653 0 00-7 35l9-27 3-10-1 12c-1 7 0 12 1 12l2-5c0-3 2-6 3-7 1 0 3-13 4-28l3-29 5 13c4 16 5 36 1 57l-2 27c0 11 1 12 3 11 5-1 10 4 10 9s7 19 10 18c1-1 3 1 4 5l4 10c2 2 2 5 2 7s3 6 6 10c6 7 14 24 15 29 0 3-4 3-15 2l-16-2 10 4 16 4c2 1 5 4 5 6 0 3 1 4 2 4l2 3 4 12c10 19 12 75 3 73-1 0-2 1-2 3s-2 3-4 3-3-1-2-3c3-8 2-9-4-10-5 0-6 1-7 6-2 7-3 7-9 7-4 0-9-3-13-6zm-44-176c0-3 1-9 3-13 4-7 3-22-2-22a740 740 0 00-12 35c-1 5 0 6 5 6s6-2 6-6zm0 0" fill-rule="nonzero" fill="#e4aa41" fill-opacity="1"/><path d="M627 770a271 271 0 017-49c0-2 3-2 7-2 8 0 8 0 8 8l-3 29-4 21h-8c-7 0-7 0-7-7zm-96-50c0-7 0-8 8-8 7 0 7 1 7 8s0 8-7 8c-8 0-8-1-8-8zm53-75v-16h16v32h-16zm-311-77c0-21 2-24 11-24h8l-2 12-1 19c0 7 0 7-8 7h-8zm-20-25v-14h16v29h-16zm0 0" fill-rule="nonzero" fill="#e4aa41" fill-opacity="1"/><path d="M44 882c-1-2-1-2 2-1 2 1 3 0 3-3 0-6 5-6 5-1 0 3 1 3 2 1 2-5 5-7 15-6l15-2c10-4 20-6 19-4-1 1 0 2 3 2 2 0 3-1 3-2-1-2 4-3 9-2l1-4c0-2 2-6 4-7 6-3 3-3-9 1-9 4-34 10-44 11s-7-7 6-17l12-11c0-1 2-3 5-4 5-2 5-2-1-2l-7 3c-3 7-51 27-59 25-5-1-8-6-3-6 1 0 3-1 5-4 2-2 6-3 9-4 3 0 5-1 6-5 0-4 0-4-8-3-5 2-12 3-17 3-7 1-7 0-7-5 0-10 1-11 4-11 1 0 4-3 5-6l5-10 1-7c0-3 0-4 1-3s2 0 3-1c4-3 13-4 14-2h5c2-2 3-2 3-1l3-1c1-1 6-3 11-3 5-1 13-4 17-7 9-4 7-5-4-1-8 3-48 6-51 4-1-1-2-1-2 1s1 3 2 2 2 0 2 1l-3 4c-1 0-3-3-4-9-2-8-2-10 1-16l7-9 2-3 9-6 14-9c2-2 5-3 7-3 1 0 2-1 2-3s1-2 3 1c1 2 2 2 3-1l3-3c1 1 5-1 10-3 4-2 8-4 9-3s2 0 3-2c0-2 2-4 3-3s2 0 3-1-1-2-3-1c-10 2-21 3-24 1-2-2-7-1-14 1-14 4-18 4-18 1 0-1 1-2 2-1s3 0 5-2 2-3 0-3l-3 2c0 1 0 2-2 1-1-1-2 0-3 1-2 3-10 3-10 0l3-6 2-5 2-6 4-9c0-4 6-10 9-9 1 1 4-1 7-4 4-4 6-5 6-4s2 2 5 2c2 0 4-1 4-3 0-3 8-10 10-8 1 1 2 0 1-1-1-2-3-3-4-2l-6-1c-3-2-3-2 0-2 2 0 3-1 2-4l3-4 3-4c0-3 14-7 31-8 3 0 5-1 4-3 0-3-1-3-14-4-6 0-12-2-16-6-3-3-7-5-8-4-2 2-6-10-5-15 2-5 8-7 9-3 1 2 0 3-1 3s-2 1-1 2l9 1c4 0 7-2 7-3l-4-1v-3c0-3 2-5 3-5s2-1 2-3l3-7c3-3 4-2 6 4l2 4 1-7c1-2 0-6-3-9-4-3-4-5-2-7 1-3 1-3-1-4s-2-2 0-4c3-3 4-3 5 0 2 3 4 4 6 4s2 2 2 4c-1 2-1 3 1 2 1-1 3 1 4 3 3 5 6 2 4-5-1-3-4-7-7-8l-4-2c2 0 2-2 1-6l-1-7 2-8c0-5 1-7 3-7l2-1v-4c1-1 3 5 3 12l5 30 4 27c0 5 1 15 3 21 4 13 5 33 1 39v4c2 0 8-9 9-13v-33l-3-10-5-24c-3-17-4-24-4-48 0-23 1-29 5-38 3-6 6-12 5-13l2-2c2 0 3-3 2-6-1-6 0-7 3-5 5 4 13-4 11-10v-7l3 3c0 3 2 5 3 5 2 0 2-5 2-14-1-11 0-13 5-18 14-13 43-25 71-29l19-3v5c0 3-2 5-3 5-2 0-4 3-5 7-1 6-2 7-9 7-5 0-8 1-9 4-1 2-5 6-10 8l-12 5-7 5c-4 1-4 5-4 19a2017 2017 0 0015 179l4 45a686 686 0 016 76c0-3 2-6 5-7 2-2 2-3 0-3-4 0-3-18 1-18 2 0 3-1 3-2l-2-3c-1 0-2-4-2-10 0-7 1-10 3-10s3-1 3-3 0-3-2-3l-2-10c0-8 1-11 3-11 4 0 5-5 1-7a2361 2361 0 003-162v-72h8c6 0 7 0 9 13a457 457 0 018 69l5-22 4-22h7c7 0 8 0 9 11 2 9-1 56-5 91l-5 41c-2 14-4 27-6 29l-4 22-5 29c-2 7-2 15-2 22 2 9 1 13-2 15-3 4-6 22-6 45 0 10-1 17-3 18s-2 1 1 1 3 15 0 16l-3 10c-1 6-1 8 2 8 2 0 3 2 3 8s-1 8-4 8c-5 0-7 5-7 18 0 8 0 8-9 8h-9l1-10 2-11v-11c0-7 1-11 3-13s2-4 1-5a301 301 0 003-39 426 426 0 019-58v-3c-2-4-1-13 2-18 1-3 1-4-1-3s-2 1-1-3l3-18 2-21-2-10c-2-2-2-4 0-5 2 0 2-3 2-5l-1-7-2-1a3236 3236 0 01-23 207 749 749 0 00-8-54l-4-41a1518 1518 0 00-10-86l-2-27-1-22c-2-20-5-46-7-50v14l2 45 3 45c3 26 3 27-2 25-4-1-5-3-5-10 0-6 2-11 3-11 2-1 1-2-1-2-3 0-4-2-4-10l2-10c2 0 3-2 3-5 0-4-2-6-4-6s-3-3-3-14c0-7 1-13 2-13 2 0 2-2 2-4 0-3-1-5-3-5-3 0-3-3-3-18 1-10 0-18-1-18s-2-6-2-13c0-8 1-14 3-14 1 0 2-3 2-7 0-6-1-8-3-8-3 0-4-3-4-11v-11l-9 1c-5 1-9 0-9-1 0-2-2-3-4-3-3 0-5 2-5 7 0 4-1 7-5 10-5 3-6 5-6 21 0 15 1 19 6 27 4 6 11 13 16 17 8 5 10 7 10 13s-2 8-8 11c-8 3-8 3-13 40-1 11-3 20-5 20l-1 4c0 4-2 5-13 5-14 0-19-3-29-13-5-6-7-6-9-4-5 5-3 8 4 8 4 0 7 1 8 3s2 3 4 3 3 2 3 4 2 3 5 3c7 0 9 39 1 46-4 4-12 7-30 13a209 209 0 00-59 27c-2 1-2 2 1 4 5 3 23 2 40-3l27-4c11 0 11 0 11 8 0 7-1 8-8 10l-9 3 18 4c32 6 30 5 30 14v9l-17-2-33-3c-23-2-59 3-63 9-4 7-3 7 9 3s26-5 26-1a405 405 0 0167-4c6 2 7 3 7 9 0 7-1 8-7 9l-14 1-10 2-11 5-8 5c0 3 0 3 15-3 7-2 19-4 26-4h13v7c0 7-1 8-5 9-3 1 1 2 8 3 13 1 13 2 13 9v8h-18c-13 0-19 1-22 3-2 2-6 3-11 3-7 0-7 0-5-5l3-5-6 5c-5 6-11 7-11 3h-7c-10 3-43 3-45 0zm14-48c1-1-1-1-4-1s-5 1-5 4 1 3 5 0l4-3zm202-210l-3-4-1 4c0 3 1 5 3 5s2-2 1-5zm-59-98a1112 1112 0 00-5-78l-1-22-5 2c-3 2-4 5-4 15 0 11 0 12 3 8 3-3 3-2 5 11l2 48c1 36 3 52 5 52v-36zm-10-38c0-3-2-6-3-6l-2-4-1-3c-3 3 1 18 5 18 2 0 3-2 1-5zm0 0" fill-rule="nonzero" fill="#d99b36" fill-opacity="1"/><path d="M213 867c-12-44-13-57-12-127 1-31 1-37 4-37 2 0 4 3 4 7a3588 3588 0 0115 129l2 15 3 20c0 10-1 10-6 10s-6-1-10-17zm67 10l3-35a6526 6526 0 0028-300c0-4 2-5 8-5 8 0 8 0 9 13v21l1 9c4 2 7 26 7 59v31h-14l1 40a307 307 0 01-2 74c2 0 2 14 0 16l-2 11c-1 20-6 64-8 68-1 4-4 5-9 5-9 0-8 4-5-38l1-23c0-2 1-3 2-2v-18c1-1 2-5 1-9l2-9c2-1 2-1 0-1s-3-1-2-2a384 384 0 006-57c-3-4-4 1-7 32l-12 122c-2 8-8 7-8-2zm30-191c1-17 0-20-1-12-3 19-4 49-2 42l3-30zm199 153a1750 1750 0 0112-167c0-14 2-26 5-35 7-20 12-41 15-65 1-12 2-12 9-12h8v15l-6 94c-5 66-10 176-10 207v8h-34zm49 40c0-3 0-6 2-6l-1-10c-2-7-1-17 0-32 2-12 2-37 2-56-1-32-1-34 3-34s5-1 3-22c-1-22-1-22 5-28l8-6 4-4c4-6-5-20-12-20-5 0-5-2-5-8 0-7 0-8 5-8 3 0 6-2 7-4l1-51v-48h15l2 16a1601 1601 0 011 233l1 27 1-19 6-71c3-56 5-71 12-148 9-92 9-98 7-103-1-2-3-8-3-13 0-8 0-9-16-16l-24-11c-8-3-9-4-9-11s3-9 6-4c1 2 8 5 15 7s13 4 13 6l5 3c8 2 32 17 46 29 17 15 39 42 36 44-2 1-1 4 3 11 4 5 5 9 4 9l2 2c2 1 3 5 3 11 0 9 0 10 4 6l4-2-2 4c-1 0-2 12-1 26 0 13-1 24-2 24l-1 6c0 3-1 6-3 6-1 0-2 4-1 10 1 5 0 10-1 10s-2 2-2 5c0 4-1 6-3 5-1 0-3 1-2 3 0 1-1 2-3 2-3 0-4 1-2 3 4 4 4 22-1 40-6 19-6 20-3 20a565 565 0 0120-68c2-1 3 1 4 4l3 6c2 0 2 1 2 3l2 4c2 0 3 4 4 9 3 15 3 18 1 21-2 2-1 2 2 2 7-2 16 3 19 11l4 8 3 8c1 5 4 8 7 10 4 1 5 4 5 8 0 2 2 6 5 8 2 2 5 6 6 10 1 6 0 8-6 11-7 3-10 3-24 1-23-3-25-3-7 2 45 12 62 38 62 90 0 18-2 19-12 7-7-8-38-27-41-24 0 0 1 4 4 7 3 4 5 9 5 11s3 7 7 11l8 10c0 5-17 3-22-2-3-3-8-6-13-7-6-1-7-1-5 2 6 12-2 13-13 2-4-4-8-6-9-6 0 1 2 4 5 6 8 5 7 7-2 7-10 0-15-5-15-17 0-14 4-16 23-16h16l-7-4c-6-3-7-4-7-12 1-7 2-8 10-8 9-1 28 7 49 20l11 6-2-8c-1-5-4-15-8-23l-7-14-8 4-16 3c-9 0-9 0-9-8 0-5 2-8 6-12 6-4 6-4 3-8-2-2-6-3-9-3l-4-2c0-1-12-3-27-4l-27-1v-8c0-6 1-8 4-8s5-1 5-2c0-3 30-3 48 0 14 2 23 1 23-2l-4-3c-3-1-4-3-4-6 0-4-2-5-13-5s-12 0-12-4l-3-8-4-5c0-6-7-4-14 4s-10 9-18 9c-6 0-11-1-13-3-3-5-1-44 3-57 4-11 2-21-5-21-2 0-4 2-4 4s-3 3-8 3h-7l-2 23c-1 28-9 78-21 130l-12 53-2 13h-11c-10 0-11 0-12-7l-2-71c0-36-1-65-2-65s-2 5-2 11a513 513 0 000 82c-1 4-1 24 1 44 0 5 0 5-17 6s-17 1-17-5zm57-80c2-9 4-50 2-49l-2 14-3 28c-1 14 0 19 3 7zm16-11c0-2-1-1-2 1l-2 9c0 4 1 4 2-1l2-9zm-11-55l-1-12c-2 2-3 25-1 25 1 0 2-6 2-13zm16-55c0-7 1-13 2-13s2-2 2-6 1-5 8-5 8-1 9-7c2-6 13-20 16-20 2 0 3-2 4-6 1-3 3-5 4-5s2-5 2-11l2-12c3-1 5-22 2-22-1 0-2-2-2-5l-2-7-2-7c0-3-2-6-4-7s-3-4-3-11l-2-10-5 50a337 337 0 01-9 58c0 3-2 4-8 4h-8l2-9 3-50 3-44v-19c-2-25-4-7-7 41a2872 2872 0 01-8 110l-2 28v2c2-2 3-10 3-17zm28-199c-3-6-7-5-5 1l2 25v20l3-21c2-16 2-22 0-25zm25 28c-2-5-11-11-11-8 0 2 2 3 3 3l2 4c0 2 1 5 3 5 4 2 4 1 3-4zm0 0" fill-rule="nonzero" fill="#d99b36" fill-opacity="1"/><path d="M724 648c1-2 0-3-2-4s-3-2-2-4c3-4 7-39 6-49-1-9 0-9 2-5 3 4 3 17 2 44 0 5-1 8-2 7-2-1-2 1-1 4 0 3 0 6-2 7h-1zm-215-63l4-23c3-16 3-16 11-16h7l-1 13-4 23c-3 11-3 11-11 11-7 0-7 0-6-8zm-400-60c-2-3-2-10 1-10 1 0 2-1 2-3 0-3 13-30 14-27l1 8v10c-2 6-16 24-18 22zm115-33v-13h16v25h-16zm85-3c0-7 1-7 8-7s8 0 8 7c0 8-1 8-8 8s-8 0-8-8zm0 0" fill-rule="nonzero" fill="#d99b36" fill-opacity="1"/><path d="M66 881l9-3c2 0 3-1 2-3s0-2 5-1h5c-1-2 16-2 18 0 1 1 0 3-1 5-2 4-6 5-22 5-18 1-20 0-16-3zm0 0" fill-rule="nonzero" fill="#d5922e" fill-opacity="1"/><path d="M117 881l4-8c4-3 8-4 22-3l17 1-15-3c-24-5-28-11-11-16 9-3 10-3 4-3-4 0-15 2-24 5l-30 7c-10 1-12 1-12-2 0-2 3-5 6-7l11-10c3-3 9-5 12-6l8-3c1-1 4-2 9-2l15-2c6-1 6-1 3-3-5-2-15-1-48 3-16 2-22 2-23 0s-5-2-17 2c-8 3-19 6-24 6-7 0-8 0-8-4 0-3 1-5 4-5s5-2 6-5c2-10 9-16 17-16 5 0 7 0 8-3s2-4 3-3c1 0 2 2 1 3l3 1c3 1 4 0 3-3s0-3 1-1c2 3 5 3 14 1h12l3 1 17 1c31 4 37 4 33 2l-29-7c-34-6-33-5-28-11l6-4 8-3a112 112 0 0114-5c2-2-16 1-28 4-12 4-43 5-51 1-7-2-8-8-1-14 10-10 13-12 28-18a146 146 0 0021-9l7-2 9-2c1 1 2 0 2-1s1-2 3-2c6-1 10-2 13-5l4-2c0 5 6-5 7-11 0-5 0-6-4-7-3 0-5 1-6 3s-3 3-4 2-5 0-8 1c-3 2-7 3-11 1l-8-1c-1 0-2-1-2-3s1-3 3-2 2 1 0-1c-3-4 1-12 8-19 4-4 5-4 5 1l2 4c1 0 2-1 1-3l4 2c5 4 11 5 11 1l-4-2c-2 0-2-1-2-3 1-2 0-5-2-7-3-4-4-4-9-2-3 2-5 2-5 1 1-1 0-3-2-3s-3 0-2-1l2-9c1-5 3-9 5-11s3-4 2-5 2-2 5-2c6-1 8 1 10 5 6 11 18 19 27 19l5-2c-1-1 0-3 1-5l4-5 1-10 3-20c0-7 1-13 2-13 1-1 0-3-2-5s-2-3 0-2 3 0 4-2l8-6 7-3-11-8c-7-5-13-12-17-20-5-10-5-13-5-31 1-19 5-30 10-30 1 0 2-6 2-13 0-22 0-22 8-13 6 7 6 7 5 3-1-5-1-5 3-2 3 2 5 7 6 10l3 6c3-2-2-15-5-15v-4l3-24c1-12 2-20 4-20 1-1 2 1 2 3-1 2 0 6 1 8l3 12 2 6 1-5c3-8 4 12 6 60 2 33 2 34-3 34-3 0-5-2-5-5 0-8-4-7-5 2-1 7-3 9-7 10-8 2-19 2-19-1l-1-1c-3 2 12 24 16 24l4 3 7 5c3 2 4 5 4 11 0 8 0 9-8 10-7 1-8 2-7 8 2 38 4 52 7 58l4 20 1 12h-8c-7 0-9-1-14-9-3-5-9-10-13-12-5-3-6-3-4-1l4 10 4 6c3 0 6 9 6 19 0 4-1 5-5 5l-7 2c-2 4-16 9-22 9-3 0-7 2-9 4-3 2-9 4-15 4-6 1-11 3-11 4l-4 2c-5 0-25 9-25 11l-4 2c-1 0-3 1-3 3 0 3 14 2 38-3l33-5 16-2v10c-1 10-2 11-23 14l-11 2 12 3 26 4c24 2 23 2 23 13 0 9-1 10-5 11s-6 3-6 5l-6 9-5 6h6c7 0 7 0 7 9 0 7-1 9-5 9s-4 0-2 2l11 2c11 0 14 2 14 9 0 12-4 13-33 13-24 0-27 0-27-3zm13-40c2-2-10-1-14 1-4 1-2 2 4 1l10-2zm85 36c-5-15-11-44-12-56-2-11-1-13 2-13 2 0 4 4 6 13 2 11 10 45 15 60 1 2 0 3-4 3-3 0-5-2-7-7zm26 5c-1-1 0-1 2-1 4 2 5-1 1-5-2-2-2-3 0-5 3-2 3-2 0-2-2 0-2-1 0-3 1-1 2-4 1-5-1-2 0-3 1-3 2 0 3-2 3-3s-1-2-2-1l-1-11c0-6 2-12 3-13 3-2 4-13 1-15-2-2-2-2 0-2s3-2 3-5-1-4-2-3c-2 1-2 0 0-3 2-4 2-5-1-5l2-3c3-2 3-4 2-4-3 0-3-5 1-9 2-2 2-4 1-4l-4 3c0 2-1 2-1-1l4-7c4-5 4-5 0-3-4 1-4 1-2-2l3-8c-1-3 0-4 1-4 2 0 3-2 3-3l-3-1v-2c2-3 2-6 1-6 0-1 0-2 2-2 1 0 2-1 1-2s0-2 3-2c3-1 3-1 0-3-2-1-4-4-4-8 0-3 1-5 2-4s3-2 3-6c0-8 0-10 2-14v-8c-1-3 0-4 2-3s2 0 0-2c-2-5-1-13 3-13 1 0 1-1-1-3s-2-3 0-5l2-8c0-4 2-9 4-12 4-4 4-4 0-1-4 4-5 2-1-5 2-3 3-8 3-11s0-6 1-5c2 1 3-9 3-28l1-5c1 0 2-5 2-11l2-18c2-7 3-17 4-43 2-19 1-22-2-22-2 0-3 2-3 6l-1 8a1961 1961 0 00-18 77c-4 1-4-10-1-13l1-1c-2 0-3-11-3-27 1-40-4-89-7-86l-1 45c1 48 0 61-5 61-3 0-3-4-4-15 0-12 0-14-2-10v15c0 6 0 13-2 18s-3 22-3 44c0 19-1 35-2 35s-2 18-2 40c0 39 1 41 5 41 2 0 4 1 4 3 0 6-2 12-5 12-2 0-4 2-4 4s2 3 4 3c3 0 3 1 2 7l-1 11-4 31-3 32c0 1 0 2-2 1l-3-29a483 483 0 00-7-70c-1-1 0-3 1-5l1-5-2-13a4447 4447 0 00-7-49c-2-3-1-3 1-2 3 2 3 2 1-1s-3-6-1-14v-14l-1-10-1-6-1-13-1-11a627 627 0 00-6-51 430 430 0 00-7-87c1-11 2-16 5-20 2-2 5-4 7-3l6-3 6-4c1 1 2 0 2-1s1-2 2-1c3 1 9-5 9-8 0-1-1-2-3-2-7-1-18 0-24 1-7 1-7 1 1-2 11-6 35-13 43-13 4 0 9-1 12-3 5-4 5-3 5 3 0 4-1 7-2 7l-5 7c-4 6-4 6 0 10 4 3 5 7 5 14 0 11 6 54 7 56l3-8c2-17 5-21 16-21h10l-1 39a1844 1844 0 01-7 100 1222 1222 0 01-10 118l-5 39c-2 1-2 9 0 21 2 13 2 22 1 25-1 2-2 7-1 11 1 5 2 2 3-12 2-16 3-18 6-18 6 0 6-1 0 46l-4 42c0 3-3 3-22 3-13 0-23 0-24-2zm14-470c0-3-8-3-10 0l3 4c4 2 7 0 7-4zm48 469c-2-2-2-3-1-4 2-1 2-3 2-4v-2l2-8c1-6 0-8-2-6-2 1-2 1 0-2 1-1 2-4 1-6 0-2 0-4 2-5 3-1 3-3 1-5-2-1-2-4-1-7l1-4v-2c3-4 4-13 3-26-1-2 1-5 3-7 2-3 2-3-1-2-4 1-4 1-3-7l3-9-3-5c-4-4-4-4 0-3h4l1-9c0-3 0-5-2-5-1 1-2 0-2-2s2-3 4-3c4 0 4-1 1-2-2-1-3-3-2-3v-6c-1-4-2-7-1-8s2-12 2-25c0-58 4-134 7-138 1-2-1-18-3-17l-4 46c-5 55-5 59-9 59-3 0-4-3-4-10 0-8 1-10 4-10 2 0 3-2 3-4l-2-3c-1 0-2-4-2-9 0-6 1-9 3-9s3-2 3-4c0-3-1-5-2-5s-2-4-2-10 1-10 2-10l3-4c1-3 0-5-1-5-2 0-3-19-1-26 2-4 4-5 9-5 9 0 10 2 10 17l4 29c2 11 3 22 2 32-2 15-6 18-6 4l-2-20c-2-8-2-7-1 6l1 25c0 5 1 7 2 5 0-2 2-4 5-4 4 0 4 1 4 22l2 55c2 18 2 41 2 50l-2 16h-7c-9 0-10 2-13 32-8 77-7 75-11 75-2 0-5-1-6-3zm190-14l1-28c1-10 2-11 8-11s6 0 6-8l2-29 1-21h-6c-9 0-10-1-11-58-2-61 0-89 13-128l6-24c2-14 10-29 13-29 2 0 2-2 2-4s3-3 8-3 8 1 8 2c0 2 4 3 8 3h8v24c0 13-1 25-2 25-3 1-5 13-3 13l3 3c0 4 15 2 17-3l2-48 1-46h17l2 35v43c-1 7-1 9 1 9 1 0 2 6 2 16 0 12-1 16-3 16-4 0-5-5-6-27-1-39-3-30-4 12 0 44 0 49-3 51-1 0 1 5 4 9l6 9h-6l-12-4c-3-2-9-3-13-3-6 0-8-1-8-5 0-9-2-15-6-15-3 0-3-2-2-11l2-39 2-28-4 18-4 28c0 5-1 9-2 9l-1 3-2 8c-6 11-7 18-3 20 3 1 3 1 0 3l-4 1c-1 0-2 2-2 5l1 3c2-6 4-2 2 5-1 4-3 8-4 7l-1 4 2 4 1 2v2c2 0 3 2 3 3l-3 1c-1-1-2-1-1 1 1 1 1 4-1 5-4 6-4 13 1 18 3 2 4 4 2 3-1-1-3-1-3 1l-2 2c-2-1-3 1-2 4v10c0 2 1 3 2 3 2-1 2 0 0 4-1 3 0 5 2 8 3 2 3 3-1 2s-5 0-4 4c0 3 1 5 3 6 2 0 2 0-1 2-6 3-8 7-2 5 2-1 3-1 2 2-1 2 0 4 1 4s2 1 1 3c-1 3-2 3-4 0-3-3-3-4-3-1 0 2 0 5 2 7 1 2 1 3-1 4-4 3-4 11 0 13 2 1 3 2 1 3-4 2-5 14-3 24v8c-1-1-2 1-2 3s1 3 3 2 1 0-1 2c-5 3-2 7 3 3 3-3 3-3 0 1-2 2-4 3-5 2l-2 6c0 4 1 7 3 7s2 1 0 3c-5 4-3 10 3 14 4 1 5 3 5 3l-7-2c-3-2-4-2-4 1s-3 3-11 3h-11zm32-257l6-17 2-5 2-8 4-17 3-17c0-7 0-6-6 4-5 9-12 35-18 69-2 10 1 6 7-9zm30 7l-2-6-2 6 2 6 2-6zm0 0" fill-rule="nonzero" fill="#d5922e" fill-opacity="1"/><path d="M535 850c1-38 2-42 6-42 2 0 3 3 3 10l1 9 2-8 2-36c0-16 1-30 2-31v-21c-1-19-1-21-5-21-3 0-4-2-4-6 0-9 2-17 5-17l5-3c3-2 9-3 25-3h21v8l-1 9-1-8c-2-8-2-8-4-3-2 3-5 5-7 5l-2 2c1 2 0 2-2 2s-3 2-3 4c1 2 1 2-2 2-3-1-3-1 1 2 3 3 4 4 1 6-3 3-3 3-1 0 1-2 0-3-1-1-2 1-3 4-2 8l2 13c0 2 2 4 3 4 2-1 3 0 2 2l-4 2c-2-2-2 2 1 5 1 1 1 3-1 6-3 2-4 4-2 6 3 4 1 6-3 6-1 0-1-1 1-2s2-2-1-3c-2-1-3-1-2 1 1 1 0 2-1 2-2 0-2 1-1 4 1 2 2 5 1 7 0 1 0 2 2 2 1 0 2 1 1 2-2 4 6 12 10 11 3-2 3-1 0 0-2 2-4 2-5 2-1-1-3 1-6 3-3 4-3 4 0 7 2 2 2 3 0 4-1 1-1 2 1 4 4 4 5 9 1 7v4c3 7 3 9 0 7-2-1-6 3-6 7-1 1 1 2 3 3 4 1 4 2 1 2-4 0-8 9-4 9v3c0 3 1 3 4 2 4 0 4 0-1 2-4 2-5 3-4 5l2 7 2 11c0 4 0 6-3 6l-2 2c1 2-4 2-14 2h-16zm42 32v-2l-2-2c-2-2-2-3 1-3 2 0 4 2 5 3s0 2-1 2-2 1-1 2v2c-1 0-2 0-2-2zm0 0" fill-rule="nonzero" fill="#d5922e" fill-opacity="1"/><path d="M597 860c-1-16 0-54 2-94l6-118c1-40 3-56 8-85 4-19 7-40 7-45 0-9 0-10-6-10s-7 0-8-10l-1-23c0-8-1-12-4-13-2-1-3-4-3-9 0-7-1-8-10-12-9-5-10-6-10-13l1-5c1 2 9 7 20 11 20 9 44 22 54 31 7 6 4 5-6-2-10-6-15-7-16-1a407 407 0 01-5 116l-2 24-5 54-4 36c-1 1-1 2 1 2v8l-4 36-2 37-2 27a1464 1464 0 01-5 57c-2 29-4 29-6 1zm0 0" fill-rule="nonzero" fill="#d5922e" fill-opacity="1"/><path d="M697 881l-9-8c-6-4-7-6-7-12 0-9 1-9 25-12 14-1 15-1 9-3l-11-4-10-3c-6-2-7-3-7-9v-8h18c33 0 58 6 70 19l7 5c2 0 2-10 0-12-2-1-5-6-7-11-5-9-6-10-10-9-6 3-35 2-49 0l-17-3c-6 0-7-1-7-9 0-10 6-12 30-12 24 1 26 1 21-2l-32-2c-50 0-66-7-66-29 0-10 4-18 9-18l2-5c0-3 1-6 3-7s4-5 5-10l3-11 3-14 3-13c3-2 5-16 2-16l-5 11c-3 8-4 9-10 9-4 0-6 1-5 2v19c-1 15-2 17-6 17s-5-1-3-6c1-8 4-48 2-41-1 2-2 4-3 3-1 0-2 2-1 4 0 6-2 15-5 24-1 4-1 5 2 3 2-1 2 0-1 3l-4 14-1 17-1 8c-1 1-3 9-4 19l-5 25c-3 6-3 6-5 2v-19a891 891 0 006-92l7-92c2-51 7-100 11-111 1-3 2-3 4 1 3 3 4 3 6 1 1-2 2-2 3 0 1 1 1 2-1 2l-3 3a393 393 0 012 95c-3 49 1 32 6-27l5-57c1-2 2-2 5-1 3 2 6 7 8 15 1 8 3 15 5 16v5c-2 1 4 9 7 9l3 3c0 1-1 2-3 1s-4 0-4 1 2 3 5 3c3 1 4 2 2 6-3 6-3 7 3 3 8-5 9-4 6 3l-5 7c-1 0-2 3-1 7 0 3 0 7-2 7-1 1-1 3 1 8v6c-2-1-2 0-1 2 1 4 1 4-2 2-2-3-3-2-2 0l2 6c1 1 0 2-1 2l-2 4c0 8 0 10-2 9-3-2-6 7-4 10 1 1 0 1-2 1-2-1-5 1-8 3-3 3-4 5-3 5l-2 2c-6 4-5 7 2 6 8-2 19 0 17 3l1 2c4 0 2 21-2 36-5 14-5 34-1 38s8 3 18-8c6-7 11-10 12-9 2 1 3 1 2-3-1-2 0-6 4-9 4-4 5-5 4-2l1 7c2 2 2 4 1 4l1 2c1 0 4-1 5-3 2-2 3-2 5 1v6c-1 3 0 3 3 2 2-1 4 0 4 1 0 3-10 5-12 2-1-2-2-2-3-2-1 1 0 4 2 6 3 2 5 5 4 7 0 2 1 4 5 4l6-2 7 1c4 1 6 4 6 7 0 2 2 5 5 5 4 2 8 10 6 15-1 2-5 4-9 5-10 2-43-2-44-5 0-2-4-3-8-3-5 0-6 1-3 2 2 2 2 3-3 3-7 0-8 3-2 5l22 3c9 0 17 2 18 3l3 1c2-1 5 0 8 3 5 4 13 16 10 15l-9 7c-9 8-7 9 7 3s18-4 26 12c5 10 7 18 9 33v23c-2 1-4-1-10-7-9-11-53-35-57-31-2 2 0 4 5 7 8 3 13 9 13 15 0 4-2 4-19 2-16-1-20 0-22 2-6 5-5 9 3 17l7 7h-9c-5 0-10-1-11-3zm8-129c0-5-8-6-13-1l-13 4c-9 1-8 1 8 2 17 0 18-1 18-5zm-35-164c-1-6-2-6-2-2-1 3-3 5-4 5-2 0-3 1-3 2 0 2 1 3 2 3s2 2 2 6v6l3-7 2-13zm0 0" fill-rule="nonzero" fill="#d5922e" fill-opacity="1"/><path d="M719 876c-11-10-12-14-1-14 10 0 32 6 35 9 1 2 2 2 2 1l4 4 4 7-17 1c-18 0-19 0-27-8zm-105-1c0-7 2-13 5-13 2 0 3 3 3 8 0 6 0 8-4 8-2 0-4-2-4-3zM55 847c-1-2 4-5 7-5l8-2c9-3 6 1-5 5-5 2-9 3-10 2zm144-54c-2-16-2-71 0-76 0-1 3-3 5-3 5 0 5 2 4 39v40c0 11 0 13-4 13-3 0-4-2-5-13zm432 3l3-15 1-5v5l-2 15-4 9zm-94-9c0-19 2-26 6-26 3 0 3 5 3 20 0 19 0 21-4 21s-5-2-5-15zm-248-6c0-7 1-9 4-9 5 0 6 4 4 13-3 9-8 7-8-4zm290-5c-2-6-2-8 2-8 2 0 3 1 3 2 0 2 0 2-2 2l-1 4 1 3-3-3zm0 0" fill-rule="nonzero" fill="#d5922e" fill-opacity="1"/><path d="M291 760c0-8 1-10 5-10s6 5 3 15-8 6-8-5zm349-11c1-12 3-13 3-2 0 6-1 10-2 10-2 0-2-4-1-8zm-100-8c0-13 2-20 5-20s4 4 4 15c0 13-1 14-5 14s-4-1-4-9zm-247 1l2-21c1-13 2-16 6-16s4 1 3 16c-2 22-4 27-7 27-2 0-4-2-4-6zm-53-24c0-9 0-10 4-10 5 0 6 5 3 15-2 9-7 6-7-5zM72 703l-5-1c-1 1-1 0-1-2l2-3 4-3c1-2 3-2 5 0l4 1h2c0 4-8 10-11 8zm622-3l2-4c1-1 2-4 1-6-1-4 5-20 7-20 4 0 8 7 8 13s0 7-3 5c-4-3-5-2-7 6-1 7-8 11-8 6zm-495-7c0-9 6-11 8-3 2 9 2 11-3 11-4 0-5-2-5-8zm43-4c0-11 0-13 4-13s5 2 5 8c0 10-2 17-6 17-2 0-3-3-3-12zm56 2c0-6 1-8 4-8 5 0 6 2 4 11-3 8-8 6-8-3zm-101-20c0-9 6-11 8-3s1 10-3 10-5-1-5-7zm103-1c0-8 1-9 5-9s5 3 3 13c-3 8-8 6-8-4zm-56-12c0-9 1-11 5-11 3 0 4 2 4 6 0 10-2 17-6 17-2 0-3-4-3-12zm351 4l-1-18c0-8 0-12 1-10 0 2 2 4 4 4 3 0 3 4 3 15s0 14-3 14c-1 0-3-2-4-5zm-461-3c-3-3-2-8 3-13l4-4v8c-1 9-4 12-7 9zm1-18c0-2-2-3-3-3-2 1-6 0-9-1-3-2-7-3-10-3-2-1-4-3-4-5s2-3 7-2l9-2c1-2 0-2-1-2-3 2-5-7-2-9 2-2 4-2 4-1v-6c-3-10-3-14 0-14 1 0 2 2 2 5l2 5 1 7 2 6c2 2 2 3-1 4-2 2-2 3 0 3s3 1 2 3-1 6 1 9l1 7c-1 1-1 0-1-1zm111-31c0-15 1-17 5-17s4 2 4 12c0 15-2 22-5 22s-4-4-4-17zm-53-3c0-8 1-11 3-11 3 0 6 6 6 16 0 4-1 6-5 6s-4-2-4-11zm-3-36c0-8 1-11 4-11s5 7 5 16c0 5-1 6-4 6-4 0-5-1-5-11zm118-80c-2-17-2-18 6-18 9 0 11 3 11 18 0 8 0 8-8 8-7 0-7 0-9-8zm0 0" fill-rule="nonzero" fill="#d5922e" fill-opacity="1"/><path d="M306 876l2-22 2-22 3-21a626 626 0 0111-56c1 0 3-2 3-4s1-3 3-3 3 1 2 5c-1 3-1 4 1 3s3-3 3-5 2-3 4-3c3 0 3 2 2 12l-2 15c0 3-1 4-6 4-7 0-7 1-8 13l-9 82c-1 9-2 10-7 10s-6 0-4-8zm186-24c2-41 2-70 0-127-2-44-2-44 3-44 4 0 4 1 4 14 1 22 3 58 5 64 2 5 2 5 2-2v-10a1035 1035 0 011-60l4 8 4-1 2-4 1-8 1-6 4-2c3 0 3 2 2 9a1579 1579 0 00-10 184v17h-7c-6 0-7 0-5-7 1-6 0-8-1-8-2 0-3 3-3 8 0 6-1 7-4 7-5 0-5 0-3-32zm12-3l-1-13c-2 1-4 26-2 28 3 5 4-1 3-15zm8-133l1-13c2-4 1-6-1-6-3 0-4 3-4 13 0 7 1 13 2 13s2-3 2-7zm104 147a1864 1864 0 0121-84c5 0 4 9-4 47a1045 1045 0 00-14 57c-6 4-7 1-3-20zm-18-24l-1-8c-1-5-1-7 2-7 2 0 3 2 3 8l-2 8-2-1zm38-66l9-54c2-7 3-11 6-11 4 0 4 5-2 38-4 24-6 29-9 29l-4-2zm-439-24c0-11 1-15 3-15 4 0 6 7 6 17 0 8-2 13-6 13-2 0-3-4-3-15zm130-19l-2-5c-2 0-3-4-4-9-1-8-1-8 4-8 3 0 4 1 4 5 0 5 1 6 7 6s7 0 7 8c0 9-6 11-9 3l-2-6v6c-1 6-5 6-5 0zm-128-32c0-11 6-15 8-5 3 9 2 15-3 15-4 0-5-2-5-10zm344 5l1-8c0-2 2-3 3-3 3 0 4 2 4 8s-1 8-5 8c-3 0-4-2-3-5zm-223 0l-1-8c-1-4 0-5 4-5 3 0 4 1 4 8 0 5-1 7-3 7l-4-2zm328-5l1-8c0-1 2-3 4-3s3 3 3 8c0 7-1 8-4 8-4 0-5-1-4-5zm-52-11c0-4-1-4-4-1-5 4-10 5-18 2-8-2-6-7 2-7 5 0 8-2 9-4s5-3 9-3c9 0 9 0 8 8-1 9-6 14-6 5zm53-4c0-7 3-13 6-13 2 0 3 2 3 7 0 7-1 8-4 8s-5-1-5-2zm-105-9c0-13 2-20 6-20 2 0 3 3 3 14 0 13 0 15-4 15s-5-2-5-9zm-347-1c0-9 6-11 8-3s1 11-3 11-5-2-5-8zm306-8c-1-8-1-9-2-5-1 3-4 5-5 5-4 0-4-7-2-29 1-11 2-13 6-13s4 1 2 15c-1 12 0 16 2 15l2-7 1-2c1 2 4 2 6 2 3-1 4-4 4-10 0-5 1-9 3-9 1 0 2-3 2-7 0-5 1-6 5-6s5 1 5 2l-4 10-3 11c0 2-1 5-3 5l-2 6c0 3-2 7-4 8l-4 10c-2 11-8 10-9-1zm74 2l-11-2c-8 0-8 0-8-8 0-5 1-8 3-8s3 2 2 4 2 3 9 4c7 0 12 3 16 7l6 6h-8c-4 0-9-1-9-3zm-254-8c0-4 1-7 2-7s2 3 2 7c0 5-1 8-2 8s-2-3-2-8zm6 6c0-7 3-13 6-13 2 0 3 2 3 7 0 7-1 8-4 8s-5-1-5-2zm266-6c-1-11 0-13 4-14 3 0 3 1 3 9 0 6-1 9-3 9s-4-2-4-4zm-400-17c0-11 5-15 8-5 2 9 1 15-4 15-3 0-4-2-4-10zm351 2c0-8 3-15 6-15 2 0 3 3 3 10 0 9 0 10-4 10-3 0-5-1-5-5zm-223-6c0-5 1-9 2-9s2 4 2 9-1 9-2 9-2-4-2-9zm8 4c-3-9-2-13 3-13 4 0 4 2 4 9 0 10-5 13-7 4zm0 0" fill-rule="nonzero" fill="#c28c33" fill-opacity="1"/><path d="M509 631c0-5 0-7 1-4v10c-1 2-1 0-1-6zm-204-17c0-8 0-9 4-9 5 0 6 3 3 13-2 8-7 6-7-4zm199-13a177 177 0 0113-57c0-3 2-4 5-4s4-2 4-7c0-6 1-7 8-7 8 0 8 1 8 9 0 6-1 9-3 9-3 0-7 14-13 48l-4 13c-2 0-2 2-2 5 0 4-2 6-5 6-5 0-6-5-2-12 1-2 2-5 1-6-2-2-6 5-6 10l-2 7c-2 1-2-3-2-14zm45 10c0-7 3-13 5-13s4 3 4 8c0 6-1 8-5 8-2 0-4-2-4-3zm-224-24l-2-22c0-8 0-10 4-10s4 2 4 10l2 21c1 10 1 12-2 12-2 0-4-4-6-11zm226-9c0-7 3-14 6-14 2 0 3 3 3 9 0 8-1 9-5 9-2 0-4-1-4-4zm110-12c0-7 2-13 5-13 2 0 3 3 3 8 0 6 0 8-4 8-2 0-4-2-4-3zm-23-6v-5c1 0 2-1 1-3s0-3 2-3c3 0 4 2 4 8 0 8-3 10-7 3zm25-31c0-7 2-14 6-14 2 0 3 3 3 9 0 7-1 9-5 9-2 0-4-2-4-4zm-446-4c-2-11-1-14 5-14 5 0 5 0 1 5-3 2-3 4-2 3 3-2 6 4 4 6s-8 2-8 0zm426-8c-2-3-2-4 0-4 3 1 6 4 6 7s-3 2-6-3zm-63-14c0-8 0-8 8-8 7 0 8 0 8 8 0 5-2 8-4 8s-3-2-3-4-1-3-2-3-3 1-3 3 0 4-2 4l-2-8zm-360-2l-4-10c-4-6-4-6 0-3 2 2 4 2 3 1s-1-5 1-9c2-6 2-6 4-2 1 3 1 5-1 6-2 2-2 2 0 4 4 2 5 11 1 10-2-1-2 0-2 3v3c-2 0-2-2-2-3zm90 0l-5-29c0-5 1-6 7-6 8 0 8 0 10 10 0 6 2 11 3 11l2 9c0 7 0 8-8 8-4 0-8-1-9-3zm300-8c-5-1-5-2-5-8 0-7 0-8 4-8s5 1 4 5 0 6 2 7c4 2 4 2 7-5 4-7 7-6 7 3 0 8 0 8-7 8l-12-2zm-5-30c0-9 1-10 7-4l2 5c-2 0-2 1-1 3s0 3-4 3-4-1-4-7zm-34-33c-4-10-6-22-3-22s10 9 11 14c1 3 4 6 7 8 3 1 5 4 5 7s-1 4-7 4c-7 0-8-1-13-11zm-323-6c4-6 9-12 11-12l1 8c0 7-1 8-7 8s-6-1-5-4zm12-15c0-3 11-11 27-19l18-9v7c0 5-2 6-10 9-5 1-12 5-15 8-5 4-20 7-20 4zm268-18c0-5 2-8 4-8s3-2 3-3c0-2 2-4 4-4 1 0 3-1 3-3s-1-3-3-3c-4 0-6-5-6-13 0-3-1-5-3-5-4 0-8-9-8-18 0-10 5-8 10 4l15 29 8 18-2 4c0 1-2 3-4 3-3 0-5 2-5 3 0 3-2 4-8 4-7 0-8-1-8-8zm-180-32l-3-5c-1 0-2-2-2-5 0-2-2-4-3-4-2 0 1-3 5-7 6-6 8-7 8-4l3 4c6 0 12 9 11 16s-1 8-9 8c-7 1-9 0-10-3zm0 0" fill-rule="nonzero" fill="#c28c33" fill-opacity="1"/><path d="M430 825c0-7 0-8 8-8 7 0 8 1 8 8s-1 8-8 8c-8 0-8-1-8-8zm166-138v-7l-4 5c-4 4-6 5-16 4-7-2-13-1-16 0-3 2-5 2-6 1 0-1-3-3-6-3-4 0-4-1-3-11 0-6 2-13 4-15 2-5 3-5 17-4 11 1 16 3 22 7l8 6v-7c0-6 0-6 3-2 4 6 4 24 0 30-3 4-3 4-3-4zm-96-394c0-2-5-5-10-8-4-3-9-8-9-11-2-4-4-5-17-6l-19-3-11-1c-8 1-24 9-24 12l-12 2c-12 0-14-1-21-8s-8-9-9-23c-1-17 0-27 4-27 2 0 4-4 6-8l4-11c1-3 1-4-2-4-2 0-4 2-5 4-1 1-4 3-7 3-4 0-5-1-4-7 0-5-1-7-3-7-1 0-3-1-3-3 0-8 14-14 32-14 10 0 13-1 13-3s3-6 8-8c8-5 10-9 10-16 0-5 7-8 16-6 4 0 6 2 6 6 1 9 12 14 42 17 17 3 19 4 19 12 0 6 1 7 7 7l17 2c12 3 12 3 12 11 0 6-1 9-4 10-3 0-2 1 2 1 5 0 6-1 6-6 0-7 1-7 8-7 13 0 16 7 7 18l-5 10c1 2 0 3-3 3s-5-1-5-3c0-4-4 6-4 11 0 2 1 3 3 3 4 0 4 7 0 24-3 13-11 23-17 23l-4 2-4 7c-5 5-18 7-20 2zm17-38c3-1 1-2-7-2l-17-1c-4-1-7-1-7 1 0 1 5 3 12 3l14 1c1 0 3 0 5-2zm-46-56c-1-7-2-8-10-9-7-1-9 0-9 3 0 4-2 4-10 4-16 0-11 4 8 6l19 3c3 4 4 1 2-7zm31 7c0-1-3-2-7-2s-7 1-7 2c0 2 3 2 7 2s7 0 7-2zm-90-6h-9c-3 1-1 1 3 1 5 0 8 0 6-1zm0 0" fill-rule="nonzero" fill="#a67562" fill-opacity="1"/><path d="M130 881c-3-4-3-4 3-3 3 1 7 1 7-1h4l12 2c8 0 10 0 10-2s1-4 3-4c3-2-2-3-23-6-14-3-21-6-19-9 0-2 6-4 13-5 13-3 17-7 7-7a326 326 0 00-65 14c-9 3-8-3 0-7 4-3 10-6 12-9 7-7 18-11 34-12 11-1 15-2 18-6l3-7c-1-1 1-3 5-5 8-3 9-7 2-9-10-3-7-8 4-8h10l1 17c2 10 1 18 0 19l-12 4-10 2h14l14 1v8c-1 8-1 8-11 10-9 0-9 1-5 2l11 2c6 0 10 7 10 17 0 5 0 5-25 5-20 0-25 0-27-3zm79-23c-4-14-8-32-8-40-5-41-5-41-1-41s4 0 10 37c1 12 6 33 9 46 7 24 7 24 2 24-4 0-6-3-12-26zm100 19c0-10 2-17 6-17 2 0 3 3 3 12 0 11 0 12-4 12s-5-1-5-7zm187-5v-6 6zm7 2a442 442 0 003-40c2 15 1 49-1 50-2 0-3-3-2-10zm36 8c-1-1-1-2 1-3v-5c-4-8-2-115 3-173 2-16 2-16 9-19 9-4 10-4 9-1 0 2 2 3 7 3 6-1 6-1-2 3l-8 4 1 34-1 34v16l-1 17-1 14-1 15c-2 1-1 13 2 17l-3 5c-2 2-4 8-4 17 0 7-1 14-3 15l-2 5c0 4-4 6-6 2zm75-6c5-26 7-32 10-32 4 0 4 4 0 25-2 13-3 15-7 15-3 0-4-1-3-8zm49 5c0-2 2-3 10-3 12 0 13-4 1-6-8-1-9-1-9-8s1-8 12-12l21-4h8l-10-3c-6-1-14-4-19-7-8-4-9-5-9-13-1-9-1-10 5-10 4 0 5-1 5-6 0-3 2-7 5-10 6-7 5-9-3-9-11 0-24-4-29-10-3-3-6-4-7-3l-4 16c-2 13-3 15-7 15-5 0-5 1 1-25l6-27c2-20 3-21 7-22 3-1 5-3 5-6l2-9c2-4 1-5-3-5s-4 0-3-12a1582 1582 0 007-75c1-2 5-38 8-82 1-18 3-29 5-32l3-5 2 5 3 22 1 22-2 12c-2 6-1 7 2 6s3-1 1 3c-4 9-1 9 6 1 9-9 13-9 6 0-8 12-16 31-21 47-2 9-5 20-8 24-3 6-5 23-2 26l4-8c3-12 6-15 15-14 6 1 6 1 5 16 0 8-1 15-2 15-2 0-2 2 0 4 1 2 1 3-1 5s-4 6-4 10l-1 9c-2 1-2 2-2 3-2 9-5 17-7 18-4 1-3 9 1 9 3 0 5 2 5 3 0 3 7 2 12-1l8-4c2 0 5-3 6-6l3-6 6 7c3 3 5 8 5 11 0 7 8 6 9-1 0-6 4-6 10-2 2 3 3 4 1 4-2 1 0 3 4 4 7 3 11 8 8 11 0 1-16 2-34 1-25-1-35 0-37 2-3 2-5 2-10-3-5-4-6-6-5-12s1-6-3-2c-5 6-4 11 2 18 7 8 24 11 59 12 23 0 32 1 36 4 7 4 5 9-3 15-6 3-9 3-15 1-10-3-26-3-26 0 0 1-2 2-4 1-1 0-3 0-5 2-1 2 0 2 2 1h4c0 1 3 2 7 2l19 3c10 3 15 3 23 1 17-5 22-4 26 6l7 11c6 7 9 35 6 37-2 1-6-1-9-4l-8-6c-2 0-5-2-8-6-11-11-37-19-64-19-9 1-10 1-7 3 2 1 5 2 6 1s4 0 6 2 6 3 7 3c7 1 27 11 28 15 2 6-2 7-17 5-12-1-36 1-39 4l7 6c4 2 9 8 12 11l5 6h-24c-21 0-25 0-25-3zm0 0" fill-rule="nonzero" fill="#cd8427" fill-opacity="1"/><path d="M729 881c-6-2-15-11-15-14s20 2 28 8c4 3 9 5 10 4s2 0 2 2c0 4-16 4-25 0zm-464-4l7-2c2 0 4-1 3-2-1-2-4-3-8-3-4 1-5 0-3-1 3-2 2-2-1-5-4-2-4-2 1-3l5-3c0-2 2-3 4-3 3-1 3-1 0-2l-9-4c-5-6-4-6 3-3 4 2 6 2 6 0 0-1-1-2-3-2s-3-1-2-4 0-5-3-6c-3 0-3-1 1-1 3 0 6-1 6-3v-1h-3c0-2 2-3 4-3 3 0 3 0 1-2-5-2-6-13-2-15 3-2 4-12 1-11-4 3-4-4-1-8 4-4 4-4-1-4s-5 0-1-3c3-3 3-4 1-4-4 0-4-7-2-10 4-3 2-6-1-3-4 3-5 2-1-6 1-3 3-5 5-5l1-7c-1-5 0-7 2-7l2-1c-1-1 0-3 1-5 2-2 2-3 0-3s-2-2-2-6c2-4 1-5-1-4l1-1c2-2 3-6 3-9-1-3 0-7 1-8 2-2 2-3-1-3-4 0-4 0 0-5 3-3 3-4 1-3-3 2-3 1-1-1l4-8c1-4 0-5-3-4s-3 1 0-2c5-4 7-20 4-20-2 0-2-1 0-2s3-5 3-12c-1-6 0-13 1-15l2-23c1-26 2-32 4-51a653 653 0 001-78c-4 0-7 8-12 28a248 248 0 01-7 32c1 5-1 10-2 9-2-2-4-12-6-42a647 647 0 00-13-70c-2-3-4-4-3-2 3 5 4 141 2 188-2 30-3 39-5 41-3 2-3 2-1 3 4 2 4 17 0 24-4 8-5 13-1 13 1 0 2 3 1 9l-2 26c-1 16-11 102-12 101a1935 1935 0 01-1-187c2-1 1-2-2-4-2-2-2-3 0-2s3 1 1-2c-2-2-3-7-1-11 1-3 1-16-1-17l2-4c4-3 4-3 0-2h-3c1-2 0-4-1-4-1-1-1-1 2-2 4 0 4 0 0-2-3-2-3-3-1-5v-6c-1-2 0-3 2-2 3 1 4 0 3-3 0-3-1-5-4-6-3 0-3 0-2 1 4 2 4 6 0 5-1-1-3-4-3-8 0-3 0-5 1-3 3 4 10 1 10-4-1-3 0-4 2-3s2 1 0-2c-2-2-2-6-2-10l3-59c1-46 1-53 5-62l6-12 6-7c4-6 4-6 0-6-5 0-3-2 6-3 6-2 7-1 7 4 0 3-2 5-4 5-1 0-3 2-3 5l-1 7c-1 3 0 4 3 4 5 0 6 1 9 26l2 15v-13l1-15h7c7 0 8 1 8 5s2 4 8 4c7 0 8 1 8 8s0 8 7 8 10 5 12 23l2 11h-9c-6 0-8-1-8-5l-2-4c-2 0-3 15-3 70 0 8 0 9 5 10s6 5 3 16c-1 5-6 6-8 1 0-3-1-1-1 3 0 6 1 7 4 7 5 0 5 1 4 8l-4 10c-2 2-2 3 0 8 3 5 3 8 1 16a3416 3416 0 01-22 209c-2 14-6 17-15 13l-8-1c-2 2 11 6 16 6 2 0 3 1 3 5 0 5 0 5-10 5-7 0-10-1-9-2zm14-17c0-1-1-2-3-2l-6 2 3 1c3 1 5 0 6-1zm318-4v-96a1041 1041 0 00-3-87c-1 2-7-3-7-6h3c7 6 7 1 4-27-1-12 0-16 2-17 2-2 2-3 0-7-2-3-4-18-4-35-3-65-4-79-6-78l-2 37a624 624 0 01-5 80l-2-7c-1-3-2-5-4-6-1 0-2-1-1-3 1-1 0-2-2-2s-3 1-2 3l-2 1c-3-2-4 1-3 14l-1 16-2 3 2 4 1 7c0 6 1 7 6 7 4 0 8 2 9 3 2 2 2 3-3 2l-17 2-12 2v-7l4-51c3-44 4-74 2-73l-2 13-5 22-3 17-2 7-2 6c0 3-8 21-12 30l-2 8c0 3-1 5-2 5l-2 2-5 13c-5 9-5 15-6 46-1 53-1 53-2 52a1561 1561 0 01-5-100c-2 0-3 7-3 16 0 13 0 16-2 12-1-2-2-8-1-12l-1-9c-4 0-3-14 2-17 2-2 2-3 1-3-7 0 0-48 8-50 5-1 7-11 5-23-1-11 3-27 9-33l4-6 2-2 4-5c1-3 4-6 7-6 4-1 7-2 8-4s5-3 9-3h8v35h14l-1-24-2-25 6-1h13c14 3 14-2-1-29-10-19-13-27-13-34 0-8 0-8 3-3 2 3 3 4 4 3 0-2 7 0 20 6 19 9 26 13 14 9-5-2-7-2-7 0l-3 2c-2 0-2-1-1-2s0-2-1-2c-4 0-3 7 1 10 3 2 4 6 4 17 0 12 1 15 3 14s3 0 2 1c-1 2 0 2 1 2 4 0 7-9 4-11-2-1-1-2 2-2 5 0 5 1 5 9a830 830 0 01-13 113 4116 4116 0 01-6 91l-2 48c-2 45-5 100-8 121l-1 13zm-92-204l3-21c2-10 4-23 6-27l8-32c2-12 7-26 10-32 4-8 5-9 1-5-8 11-13 24-22 58a1061 1061 0 00-11 54c-1 6 2 10 5 5zm-9 200c-4-2-4-17-1-17 1 0 2-8 2-19 0-12 1-19 3-19a418 418 0 01-1 55h-3zm126-17c0-7 6-22 9-22s4 6 1 17c-1 5-2 7-5 7s-5-1-5-2zM32 825c2-4 7-7 17-10 23-8 80-8 89 0 4 4-3 7-24 9l-31 3c-8 2-9 1-8-2 2-4 2-4-14 0l-22 5c-9 1-9 1-7-5zm287-26l1-28c1-21 2-41 0-85-1-22 1-75 3-79 1-4 4 25 4 46l2 33c2 12 1-67-1-82-1-10-1-11 3-11s5 2 5 9l-2 10c-3 1-1 13 2 13 1 0 2 4 2 9s-1 9-2 9c-3 0-3 24 0 25 2 0 3 9 3 22a534 534 0 010 103l-1 13h-9c-8 0-8-1-10-7zm17-58l-3-16-1 16c0 9 1 16 2 16s2-7 2-16zm-4-42c-2-3-3-3-2 2l2 12c0 6 0 6 1-1 1-5 0-11-1-13zm-221 99c-13-2-24-5-25-6-3-3 20-13 32-13 6 0 17-4 17-6 0-3-31 1-49 6-17 4-47 3-53-2-4-3-4-3 1-5h7c1 0 2-1 2-3s1-3 2-2 3-1 3-4c2-3 2-4 4-1 2 2 2 2 2-1 0-2 1-3 3-4 4 0 25-8 26-9 2-3 12-5 16-5 2 0 8-1 12-4s9-4 11-3c3 1 4 1 3-1s-1-2 1-1c2 0 4 0 5-2 1-1 2-2 4-1l4-2c2-2 5-4 9-4s5 0 3-2c-1-1-2-4-1-6 0-1-1-3-3-3s-4-2-5-6-5-11-10-16l-16-14c-3-4-7-6-8-6s-2-2-1-4 0-3-1-2-2-1-1-4c1-8 5-7 16 3 5 5 16 12 25 16 13 6 18 10 23 17l7 10c2 0-1-12-5-20-2-4-3-11-3-15l-3-7c-1 0-2-1-2-3s1-3 2-3c2 0 2-2 2-5s0-5-1-4l-2-19c-1-21 1-26 10-24 10 3 7-3-5-12-18-14-21-20-21-42 0-16 1-19 4-19l2 2v3c2 0 3 3 4 8 1 7 2 7 5 5 3-3 3-3 2 2-2 5-1 5 2 4l6-1 2-6c1-4 0-6-3-7s-3-2-1-5 1-9-5-26l-8-25c-3-8 3 1 11 17 7 14 10 18 13 17l4 1-3 2c-2 0-3 2-2 3 0 2 2 3 4 2 2 0 4 2 5 5 7 17 3-4-4-24-3-9-4-22-5-41-2-30 0-29 7 5 6 25 7 28 8 61l3 40c1 11 1 12-4 12-4 0-5-1-5-7s0-6-9-6c-13 0-16 2-11 8 3 3 5 5 7 5l4 3c1 2 2 4 4 4 4 0 14 10 16 16 2 9-8 18-18 17-7-1-8 0-7 2 3 7 10 38 10 42 0 6 7 32 9 37 1 2 2 0 3-6s3-10 5-10c4 0 6 14 4 23l-2 24c-1 24-1 25-4 25s-4-3-4-11l-2-15c-1-4-2-4-7 2-7 8-15 9-32 6s-21-2-21 7v7l14-2 15-1v8c0 9-1 9-13 13-7 2-13 6-14 8 0 2-2 4-3 5-2 1 0 2 3 2 5 0 6 1 6 4 0 6-1 6-32-1zm386-27v-40l2-22v23c0 14 1 23 3 23v2l-1 17c1 20-3 18-4-3zm8 1v-4 4zm254-10c-7-3-9-4-9-9s1-6 5-6c4-1 6 0 7 2s3 3 5 2 3 0 3 5c0 9-1 10-11 6zm-128-75c-1-2 0-4 2-4 1 0 2 2 1 4l-1 5c-1 0-2-2-2-5zm0 0" fill-rule="nonzero" fill="#cd8427" fill-opacity="1"/><path d="M577 687c-2-2 4-4 7-2 2 1 2 2-2 3-2 1-5 1-5-1zm-380-12c0-9 6-11 8-3 2 9 1 11-3 11s-5-2-5-8zm435-14l2-7c0-3 1-5 2-5s2 2 1 6l-2 7c0 2-1 3-2 3l-1-4zm3-36l4-77c0-13 2-23 3-25 2-2 3-4 2-5-1-2 0-3 1-4s3 1 3 5c1 3 1 6-1 7-2 2-2 2 0 3s3 6 3 18l-2 17-2 10-1 10-1 7c0 4 0 11-2 15l-2 22c-1 8-1 12-3 12s-3-4-2-15zm-310-48c-1-10-2-24-4-28-2-5-2-5-4 3-1 5-3 8-5 8s-3-3-3-14v-13h8c10 0 12 5 14 30 1 15 1 17-3 17-2 0-3-1-3-3zm-107-51c-2-4-4-6-5-5-1 0-2 0-1-2s2-3 4-2c1 1 2 0 1-3-1-2-1-4 1-5 1-1 0-3-2-7s-3-6-1-7l1-4v-2c2 1 3-1 3-5 0-6 2-9 4-6 3 2 4 22 1 21h-2l2 4c3 2 3 9-1 12-3 3-3 3-1 5 3 1 3 4 3 7-2 8-4 8-7-1zm-70 3l2-5c2-3 2-2 2 2 0 3 0 5-2 5l-2-2zm0 0" fill-rule="nonzero" fill="#cd8427" fill-opacity="1"/><path d="M174 877c-3-7-4-8-22-10-26-4-28-6-10-12l19-4c4 0 8-1 8-3 1-1-8-2-32-2h-37c-5 0 18-11 24-11l15-2 15-3c11-2 12-3 11-11l-2-11c0-3-2-4-11-4-7 0-20-2-31-5l-24-5c-7-2-4-5 7-9 10-2 13-2 21 0 3 1 5 0 6-3 0-3 5-6 13-9l13-5h-12l-32 4-25 5c-7 3-7 3-7 0l1-2c1 1 5 0 9-2 7-3 8-9 2-9-2 0-3-2-3-3 1-2 6-3 15-3 7 0 15-1 18-3l6-2-7-3c-6-2-7-4-6-6 3-4 49-6 51-3 1 2 3 2 5 0l4-3h1c-1-1 2-3 5-5 7-4 8-11 3-25l-3-11c-1-11-8-44-12-56s-6-30-3-30l10 6c7 5 8 5 11 2l2-6c0-1-6-7-15-14-15-12-23-21-23-29 0-4 4-5 6-1 0 3 2 2 8-1 7-3 9-3 13-2 7 4 7-2 0-23-13-37-11-37 7 1l11 25 4 44 3 46c0 1-2 2-5 2s-4-2-4-9c0-10-3-13-10-11-3 1-3 2 2 9l6 11c0 2 2 3 5 2 5 0 5 0 7 10 2 15 2 32-1 41v48a344 344 0 0019 116l1 6h-47zm12-17c-1-2-2-2-4 0-3 2-3 2 0 4 3 3 5 0 4-4zm3-67c4-10-9-15-23-9l-7 3 12 7c12 7 13 8 13 17 0 4-1 8-3 9-1 1-1 2 1 6 3 4 3 4 4-12l3-21zm121 76l6-53 9-69c1-13 2-26 0-42l-3-27v-13l1-10 2 9c2 5 3 36 3 72l1 63c1 0 3-7 4-16 2-23 3-28 7-28 2 0 3 3 3 10 0 8-1 10-4 10s-3 0-1 2c3 2 3 6 0 30-1 15-4 31-6 35-3 8-3 9 2 17 2 5 4 13 4 18v7h-29zm180 12c0-2 2-3 4-3s3 1 3 3-1 3-3 3-4-1-4-3zm124 3l16-82a1019 1019 0 0025-166 3174 3174 0 0012-100c2 5 2 41-1 59-1 13 0 15 7 5 6-9 7-7 1 5-10 22-24 86-20 91l8-19c6-18 7-20 13-20 11-2 10 9-2 35-5 10-12 29-14 40l-6 13c-3 4-5 9-5 11l1 6c0 4 10 14 16 17 4 3 15 4 41 4 29 0 36 0 38 3 4 3 4 4 0 8-4 3-7 3-25 2-11-2-21-2-22-1l-5 7c-2 4-4 6-5 6s-2 1-2 3c0 1 4 2 13 1h36c24 2 27 4 27 14 0 2 2 5 3 5h-6c-5 0-11-2-13-3l-30-2-34-2c-5-2-7-1-7 1 2 4 16 10 35 15 20 5 31 10 29 13l-23 3c-15 0-25 1-33 4l-11 4 9 1 10 4 7 5c15 8 12 10-17 10-19-1-26-1-26-3s-4-3-7-4c-7 0-8-1-8-9v-9l13-3c8-2 12-3 11-5l-2-12c-1-8-1-8-10-8-8 0-8-1-8-8 0-5 2-10 6-15 7-8 6-11-3-6-6 3-7 6-13 26-3 14-6 31-6 40v16h-13zm-124-32c0-6 1-8 5-8 5 0 5 2 3 11-2 8-8 6-8-3zm3-28c0-10 0-11 4-11 5 0 5 1 4 9l-1 12-4 1c-2 0-3-3-3-11zm105 2l-1-68c-2-115-7-254-9-255h-4c-2 2-3 11-3 34 0 26-1 33-4 36s-4 3-5-3l-4-12-3-5-3 6c-2 6-4 27-6 56l-2 23c-2 19-2 20 5 20 3 0 5 1 5 3 0 1-1 2-3 2-1 0-4 2-6 5-5 4-10 4-9-1a3828 3828 0 008-149c-2 1-3 6-4 12a379 379 0 01-23 76l-4 5c-1 7-2 8-4 1v-10l4-26c2-19 4-26 11-38 9-17 6-15-6 4-5 7-9 15-10 22l-8 33c-3 12-7 27-7 32-3 22-4 25-7 25-6 0-3-30 8-68l8-33c0-5 2-10 4-12l4-5 5-8 6-8c0-1 10-7 23-13 20-11 24-12 37-12s14 0 12-5l-3-6c-3-2-11-20-11-25 0-2-1-4-3-4s-4-3-6-6c-3-7-3-19 0-19 2 0 29 49 33 60 2 6 1 7-4 11-5 3-6 4-6 27l-1 53a2741 2741 0 01-4 245zm0 0" fill-rule="nonzero" fill="#c2721f" fill-opacity="1"/><path d="M85 819c0-1-3-2-7-1l-8-2c-1-3 7-5 14-3l17 1c31 2 32 6 2 8-12 0-18-1-18-3zm150-8a1130 1130 0 014-137l1-23 3-54c1-29 4-44 7-41a1441 1441 0 01-15 255zm258-43c0-16 0-20 3-20 4 0 5 6 5 25 1 14 0 15-4 15s-4-1-4-20zm50 4l2-4c2 0 3 2 3 4 0 3-1 5-3 5-1 0-2-2-2-5zm0-32l1-42v-18h9c5 0 9 1 8 2 0 1 3 2 7 1 8-1 6 2-3 4-13 2-13 3-14 27 0 11-2 23-3 24v3c3 0 2 11-1 13l-2 6c1 2 0 4-1 4-2 0-2-10-1-24zm127 19c-2-5 4-6 21-6 17 1 21 2 21 6 0 3-40 3-42 0zm91 1c0-2 7-8 9-7 2 2-2 8-5 8l-4-1zm-426-42c-3-24-5-55-4-64 1-6 2-8 3-5 0 3 1 5 2 5l3 18 3 36c1 15 1 17-2 17s-4-2-5-7zm155-6c0-10 6-13 8-4s2 13-3 13c-4 0-5-2-5-9zm-190-28a956 956 0 01-1-70l-2-22c3-72 3-133 2-133-2 0-4 4-7 9l-6 11c-1 1-2 0 0-2 1-3 1-3-2 0-2 1-4 7-5 13l-3 13c-2 3-7-16-10-40-3-25-3-25-16-33v-5c4-9 10-16 16-21l7-6v7c0 5-2 8-6 12-6 5-7 6-3 9l15 9c21 11 39 25 39 30 0 2 1 3 2 3 3 0 7 18 7 29-1 10-2 10-8 11-6 0-8 2-8 5s2 4 5 4c4 0 11 15 11 26 0 7-5 8-8 1-1-4-2-3-3 6-3 57-11 148-14 154-1 3-2-4-2-20zm17-200c-4-14-7-15-3-1 3 13 4 15 5 14s0-7-2-13zm0 0" fill-rule="nonzero" fill="#c2721f" fill-opacity="1"/><path d="M490 681c0-19 1-20 5-20 5 0 5 0 4 19l-2 20-3 1c-3 0-4-4-4-20zm-352 8l-2-4c3-2 8 2 7 4 0 2-2 2-5 0zm446-1c-5-1-5-4 0-4 2 0 4 1 4 3v2l-4-1zm6-17c-1-2-5-5-9-6-8-3-11-7-4-6 5 1 18 12 16 14-1 1-2 0-3-2zm-259-38c-3-10-2-17 3-17 4 0 4 1 4 11 0 8-1 11-3 11-1 0-4-2-4-5zm-4-37c-3-15-3-16 2-16 4 0 7 8 7 20s-6 8-9-4zm-3-34c-2-9-2-11 3-11 4 0 4 1 4 8 0 9-5 11-7 3zm-80-40v-12l1-26 1-31c0-4 1-7 2-7 4 0 4 19 1 52-3 20-5 30-5 24zm-56-15c-4-20-4-21-2-22s8 28 6 33l-4-11zm332-110c0-7 1-11 7-17 4-4 8-8 10-8l3-2c0-2-2-3-4-3s-3-2-3-7 1-8 2-8l9 13 11 16c3 4 3 5-3 11-10 9-18 13-26 13-6 0-6 0-6-8zm-167-32l-5-7c-2 0-5-3-8-7-4-5-4-7-2-8l10-8 7-6 6 7c8 8 11 16 11 27 0 9 0 9-8 9-6 0-8-1-11-7zm6-14c-3-3-6-1-4 3 1 1 2 2 4 1v-4zm0 0" fill-rule="nonzero" fill="#c2721f" fill-opacity="1"/><path d="M488 879c0-4 1-6 5-6 3 0 4 1 4 5-1 8-9 8-9 1zm-308-35l-3-9-5-7h8c8 0 8 1 8 9s0 9-4 9c-3 0-5-1-4-2zm250-19c0-10 0-10 8-10s8 0 8 10 0 10-8 10-8 0-8-10zm63-7c0-6 1-7 4-7 5 0 5 2 3 10s-7 6-7-3zm-3-103c0-9 6-11 8-2 2 8 2 10-3 10-4 0-5-1-5-8zm56-28l-2-7c0-4 1-4 3-2s6 3 9 2c4-1 5 0 5 3 1 3-1 4-6 5-3 1-7 0-9-1zm30-1c2-2 13-3 12-1s-4 2-7 2c-4 0-6 0-5-1zm-31-15c-1-5 12-13 23-13 9 0 23 8 25 14 1 2-2 0-6-3-8-6-10-7-22-6-6 0-15 7-13 10l-2 1c-2 0-4-2-5-3zm-17-144c0-7 1-7 9-7h8l-8 7-8 8-1-8zm12 4l3-4c2 2-1 8-4 8-1 0-1-2 1-4zm67-36c0-8 2-9 6-3 2 4 1 5-2 7-4 2-4 2-4-4zm-23-44c0-9 3-10 8-1 5 8 5 9-2 9-5 0-6-1-6-8zm-17-36c0-11 2-10 10 7 1 1-2 1-5 1-5 0-5-1-5-8zm-142-2c-5-6-5-15 0-22 3-5 5-6 16-6 16 0 19 3 18 19l-1 11-15 1c-12 1-15 0-18-3zm-152-14c0-1 4-4 14-9 1 0 2 2 2 5 0 5-1 6-8 6l-8-2zm168-24c0-7 1-8 8-8s8 1 8 8c0 8-1 8-8 8s-8 0-8-8zm85-29c0-10 2-10 8-1 5 8 5 9-2 9-5 0-6-1-6-8zm-90-14c-3 0-6-2-7-3l-12-2c-12 0-17-3-19-12-2-4-3-6-8-6-6 0-11-4-16-13-3-6-9-59-8-74v-12l10-1 9-1v9c-1 9 5 14 22 19 14 4 19 5 19 1 0-2 2-4 4-6l5-3-5-3c-5-2-5-2 3-3 6 0 9-2 11-6 1-3 3-5 4-5s2-2 2-5c0-4 1-5 10-4 7 1 10 0 10-2s3-3 8-3c7 0 8 1 8 8s-1 8-6 8-5 1-5 8c0 4 1 11 3 15 3 8 3 8 21 9 12 1 20 1 23-1 5-3 13-15 13-20 0-3 2-4 9-4h9v16c0 14-1 20-6 31l-8 19c-2 6-9 14-12 14-1 0-4 4-6 10-4 8-6 9-13 10-4 0-9 3-12 6-3 4-7 6-13 6-7 0-8-1-8-6 0-4-2-6-6-7s-5-3-5-8c0-6-1-6-8-6l-12-1 2 1c8 4 13 13 13 22 0 7 0 7-9 7l-14-2zm54-37c0-2-2-4-4-4l-8-1c-2-1-3 0-3 3 0 4 1 5 8 5 5 0 7-1 7-3zm-21-10c-3-2-5-5-5-7 0-3-2-5-4-5s-3-1-3-2-3-2-7-2-7 1-8 4c-1 5-13 8-23 6-6-1-12 1-10 4h9l27 2 23 4h6zm49-9c3-6 3-7 1-7s-4-1-5-3c0-2-2-1-4 2-3 4-4 4-4 1 0-5-4-7-14-7-6 0-6 1-5 5l2 5 18 14c2 4 6 1 11-10zm10-4c3-2 3-3 0-3-2 0-4 1-4 3l1 4 3-4zm-125-3c0-1 4-4 9-6 7-4 13-14 6-12-3 2-18-5-20-8-1-4-15-12-18-11-1 1-2 1-1-1 1-1 1-3-1-4-3-2-5 9-3 20s13 23 22 24l6-2zm134-9l3-12c1-4 1-6-1-6-4 0-13 11-13 16l-2 4-2 2 6 2c6 0 8-1 9-6zm-58-2c-1-2-3-5-6-6s-5-5-6-8c-1-5-3-6-5-6-2 1-3 0-3-2 0-1 1-3 3-3 1 0 2-4 1-10-1-9-1-11-5-11-3 0-6 3-11 11l-6 15c0 2-2 5-5 7-4 2-6 6-6 8 0 4 1 4 7 2 5-2 7-1 11 1 4 3 8 3 14 3 4-1 8-1 9 1 3 4 9 3 8-2zm63-52c0-9 0-9 8-9 6 0 8 1 8 4s-1 3-4 1c-3-3-4-3-3 5 1 7 1 8-4 8-4 0-5-1-5-9zm-175-11c3-4 5-8 4-10-1-1-1-1-1 1s-2 4-6 4-6-1-6-5c0-7 5-10 13-10 6 0 7-1 7-5l2-4c1 0 4-3 6-7 2-3 5-6 7-6l10-3c7-2 9-4 10-8l4-9c3-4 21-4 33 0 18 6 32 9 44 10l12 1v8c0 7 2 9 10 15s9 8 10 15v9l-10-1c-18-3-26-2-41 1-14 3-14 3-41-7-8-3-17-4-32-5-21 0-26 2-25 7 1 13-1 16-8 16h-6zm110-15l12-6c0-1-5-3-12-4l-15-2c-2-2-3-1-3 0s-4 0-9-3c-11-5-22-6-27-1l-9 7c-5 4-5 4 11 4 9 0 20 1 24 3 15 7 15 7 28 2zm-41-32c-1-1-3-2-5-1s-3 2-2 3 3 2 4 1l3-3zm0 0" fill-rule="nonzero" fill="#946551" fill-opacity="1"/><path d="M179 882l4-1c4 2 4-1 0-5-2-2-1-3 1-3 3 0 4 2 4 6s-1 5-4 5-5 0-5-2zm1-39c1-5 1-8-2-9-6-2-3-6 5-6 7 0 7 1 7 7 0 10-2 16-7 16-4 0-4-1-3-8zm366-159c0-2 3-3 6-3s6 1 6 3-3 3-6 3-6-1-6-3zm0-14l1-5 5-1c5-2 4 4-1 7-4 3-5 3-5-1zm56-184c0-13 5-12 9 2 2 6 2 7-3 7s-6-1-6-9zm-165-3c0-7-1-8-5-8-3 0-4-2-4-8 0-7 0-8 8-8 7 0 7 1 7 7 0 4 2 7 3 7s2-2 2-5c0-4 1-5 10-4s9 1 10 10c0 10-4 14-20 16l-11 1zm-3-59c0-3-23-12-29-12-3 0-4-1-4-6 0-3-3-9-6-12-5-6-6-7-4-19 1-9 2-12 5-12l10-3c8-4 18-5 21-1 2 2 10 3 22 3s20 1 22 3c1 1 2 9 2 21 0 21-2 27-17 35-8 5-22 6-22 3zm18-21c0-3-1-7-3-9-4-3-14-2-18 4s2 12 12 11c7 0 8-1 9-6zm-24-68c-2-2-6-3-10-3-7 0-19-5-25-11l-8-6c-7-2-15-23-17-44-1-17 0-20 2-20 4 0 6 6 6 18 0 6 1 7 3 4 1-2 2-1 0 6-1 6-1 8 2 7 1-1 2-1 1 1s1 6 3 10c4 4 6 5 8 3 3-2 3-2 3 0l3 2c1 0 3 2 5 6 3 10 8 12 18 11 7-1 10 0 12 2l6 3c2-1 4-1 5 1l4 2c2 0 2-1 0-7-2-3-5-6-7-6s-8-5-14-12c-11-11-17-13-19-8-3 4-5 2-8-6-3-10-3-11 4-16 6-5 7-5 13-2 11 5 23-1 15-8-3-2-3-3 0-5 5-3 15-2 17 2 1 3 3 3 10 1 7-3 8-3 12 1 3 2 6 3 8 2s2-1-1 2c-1 2-4 4-6 4-5 0-3 6 3 10 3 2 8 4 12 4l9 2c3 2 3 11 0 19-2 5-1 6 4 7 3 2 6 2 7 2 3-2 9-15 9-19 0-2 1-3 3-2 3 1 10-6 12-12l8-19c6-14 9-35 4-35-1 0-5 4-8 9-6 10-23 23-30 23l-13-4c-8-3-9-3-9 1 0 7-14-10-15-18l-2-16-5-11c-3-2-4-1-11 6-4 5-9 12-10 17l-7 11-6 8-2 5-2-5c-1-4-3-5-9-5-4 0-8-2-9-3l-11-7c-8-3-11-6-14-13-4-10-7-11-9-4 0 2-2 4-4 4s-3-2-2-8c0-8 0-9 10-9l9-1v9c0 8 0 10 5 14 6 5 18 9 28 9 7-1 18-8 15-12l2-2c5 0 12-10 10-14-2-5 3-8 15-8 8 0 10 1 10 3l4 7 3 9 3 12c3 6 5 8 13 11 22 6 35 1 41-17 3-7 4-8 11-9s8 0 9 6c2 8 0 32-3 34l-8 20c-5 14-10 23-20 36-12 15-15 17-23 18l-17 3c-5 1-10 1-11-1-3-2-5-2-11 1-11 4-30 4-33 0zm61-15c2-2 3-4 1-4-1 0-2-2-2-5 0-5-5-7-12-5-6 1-8 5-3 5s11 7 9 10c-2 5 2 5 7-1zm-23-23c-14-4-43-7-40-5 1 2 8 3 15 4 14 2 30 2 25 1zm0-12c-2-1-5-4-5-6s-3-3-11-3c-6 0-11 1-11 2s-7 2-15 2c-15 1-15 1 6 3 12 1 25 2 29 4 12 2 13 2 7-2zm0 0" fill-rule="nonzero" fill="#865843" fill-opacity="1"/><path d="M365 239c0-9 5-11 8-3 2 8 1 11-3 11s-5-2-5-8zm3-44l4-10c0-4 0-4-4 0-5 6-7 5-7-4 0-5 0-6 7-6s8 1 9 8c3 15 2 17-5 17s-7-1-4-5zm165 0c0-1-5-3-11-4-15-3-45-3-45 0 0 4-24 2-35-4l-21-7-11-3c0-3 30 0 42 4 10 4 18 5 24 1 3-2 24-2 36 1 8 2 8 1 5-3l-12-9c-6-4-9-8-8-10 0-3-1-4-3-4-3 0-4-1-3-3s1-4-1-4l-2 3-2 5c-2 1-2 0-1-2 1-4-1-5-12-8-8-3-15-4-17-3-1 0-7-1-11-4-15-7-22-5-25 7-1 5-4 7-10 9l-11 2-5 4-6 8c-3 4-3 4 3 4 9 0 6 4-4 5-8 0-9 0-9-4 0-8 5-17 9-18 3-1 5-3 5-4 0-2 3-4 7-5 9-2 13-5 13-10 0-7 7-11 21-11l19 2c3 2 17 3 31 3 27-1 39 3 48 15 4 6 4 9 3 20l-1 14h8c7 0 8 0 8 7 0 8-1 8-8 8l-8-2zm0 0" fill-rule="nonzero" fill="#865843" fill-opacity="1"/><path d="M182 883c9-3 2-9-19-17-8-2-14-5-15-6-2-2 6-5 15-5 10 0 15-3 18-12 2-6 2-8-2-9-2 0-6-5-8-10-6-10-6-11-2-11 5 1 8 0 8-2 0-3-25-18-33-20l-7-5c0-4 4-5 42-13 5-1 7-7 2-7-2 0-5-2-7-5l-7-4c-2 0-3-1-3-2 0-3 8-3 14 0 9 5 15 11 15 18l2 6a358 358 0 00-13-120c-5-6-14-28-14-32 0-2 3-1 5 2 5 4 7 5 14 4 9-2 15 1 15 8 0 2-2 4-5 4l-4 2 4 1c6-2 7 7 6 29-2 18-2 44-1 81 0 20-1 27-4 36s-4 17-4 51v39h-8c-4 0-6 0-4-1zm150-2c0-3-3-9-5-14l-4-13c0-2-2-3-3-3s-2 1-1 2 0 3-1 3c-1 1-2-2-2-7s1-9 2-9 2 1 1 2l1 2 3-2c0-4 0-6 3-9 2-1 3-6 3-10 0-10 2-17 6-17s4 18 0 33c-4 12-4 13 1 23 5 13 6 22 1 22-2 0-4-1-5-3zm156-6c0-7 1-8 5-8s6 6 3 14c-3 7-8 4-8-6zm132-8c0-20 9-64 15-69 6-7 71-17 82-12 12 4 7 7-12 6-23 0-32 4-46 20-13 14-8 16 6 1 11-10 21-16 24-13 1 1-1 3-4 5-12 9-16 15-15 24 1 5 1 8-1 8v5c2 4 6 4 25 5 12 0 20 1 18 2l-49 13c-9 2-16 5-16 6s7 3 16 3l21 3c7 3 3 6-10 6-7 0-13 1-13 2 0 2-9 2-21 2h-20zm-130-23c0-12 1-13 5-13 3 0 4 1 4 8 0 12-2 19-5 19s-4-4-4-14zm3-52c0-28 0-33 3-33 2 0 3 1 3 2l2 24c1 27 0 39-5 39-3 0-3-6-3-32zm0 0" fill-rule="nonzero" fill="#80523a" fill-opacity="1"/><path d="M131 799l-4-2 4 1 10 1 6 2h-6l-10-2zm201-6l3-35c1-25 2-28 6-28 5 0 5 9 1 46-2 23-3 26-7 26s-4-2-3-9zm312-59l5-20c2-4 7-16 10-27 7-21 9-24 13-19 2 3 1 6-3 18l-10 23-11 24-5 14zm-154-10c0-11 1-14 4-14s5 7 5 20c0 7 0 9-4 9s-5-2-5-15zm-155-18l-3-19c-1-12-1-13 4-13 3 0 4 1 4 5l2 19c1 12 1 14-2 14-2 0-4-3-5-6zm155-44c0-11 1-13 5-13 3 0 4 2 4 8 0 10-2 17-5 17s-4-3-4-12zm-159-13c0-11 1-13 5-13s4 2 4 13c0 12 0 14-4 14s-5-2-5-14zm324-2c1-7 2-13 4-14 3-4 2 10-2 19l-3 7zm-161-16c0-9 4-27 8-40a629 629 0 0013-49l2-3c0-2 1-4 3-4 1 0 2-1 2-3s1-3 2-3l2-4c0-2 2-3 4-3l3-3c0-2 5-5 12-9l13-6c4-6 26-9 24-4-1 1-11 8-23 14-20 11-23 13-31 25-6 9-9 18-11 26l-7 31-7 27c-3 23-4 24-7 24-4 0-4-2-2-16zm-163-7c-3-10-2-17 3-17 4 0 4 1 4 11 0 8-1 11-3 11-1 0-4-2-4-5zm-140-13c-5-5-7-10-7-13 1-5 2-4 8 4 10 13 9 19-1 9zm136-18c-3-14-3-15 2-15 4 0 7 7 7 19 0 9-6 6-9-4zm-21-20l-1-53v-52c0-7-11-15-32-26-12-6-14-10-4-10 8 0 22 7 22 11 0 1 2 3 5 3s4 1 4 5c0 5 1 6 8 6 8 1 9 2 11 8l4 8c4 2 5 28 2 38-3 7-2 10 2 23 5 17 6 30 1 30-2 0-4-4-6-11l-6-21-4-9v14c-1 22-3 41-4 42l-2-6zm14-77c0-7-5-20-9-26l-4-5 3 8 5 18c1 10 5 13 5 5zm0 0" fill-rule="nonzero" fill="#80523a" fill-opacity="1"/><path d="M539 533l4-6c2 2-4 13-6 13l2-7zm61-37c1-12 0-19-3-19-1 0-5-4-7-8-4-8-5-21-1-21 2 0 17 28 22 40 3 9 0 14-7 14-3 0-4-2-4-6zm-165-11c-3-4-4-26-1-26 2 0 3-1 3-3 0-3 3-4 13-4 11 0 14 1 14 4 0 2 1 4 3 4 3 2 5 22 1 25l-16 2c-11 1-15 1-17-2zm23-7c2-1 3-4 2-5-2-4-5-3-4 1 1 2-1 4-4 5s-4 2-2 2l8-3zm116-40c-4-7-4-19-1-19 2 0 14 20 14 23l-5 1c-4 0-7-2-8-5zm-173-2c-13-12-20-21-22-25-2-3-3-18-3-33s-1-22-1-14c-1 12-1 12-8 12-6 0-9-2-15-9-4-4-7-10-7-11 0-2-2-4-5-5-4-1-6-8-2-8l4-1 13 11c5 7 10 11 10 9l-2-5c-2-1-2-2-1-3 1-2-8-13-10-12-5 1 0-9 7-16 10-9 11-9 11-5l1 4c2 0 7 11 7 16 0 3 2 3 10 2 7-1 10 0 12 3s7 4 17 5c7 1 14 3 16 5 1 1 10 2 22 2h20l1 8 3 9c3 2 3 26 0 26l-3 7-7 11c-3 2-5 6-5 9 0 9-14 13-38 13-18 0-20 0-25-5zm61-32c5-5 5-10 0-10-2 0-2-1 2-4l5-4-6-2c-4-1-6-3-6-6s1-4 5-3c3 1 4 1 3-1-1-3-15-7-18-5l-5 2c-1 0-2 1-2 3 0 4-3 9-6 9s-8-7-7-10-10-11-11-8c-1 1 0 4 2 6 4 4 1 4-5 0l-5-2c0 2 1 3 3 4 4 1 4 19 0 18l-2-8c1-5 0-7-3-7-2 0-2 2-1 4 1 3 1 4-2 1-2-1-4-2-5-1-2 3 13 18 16 17 2-1 3 0 2 1s1 3 4 5l6 4c0 2 3 4 7 5 5 1 8 4 8 5 0 3 16-7 21-13zm-210 25c-4-3-4-3 0-9 6-7 8-7 8 2s-2 11-8 7zm265-41c0-21 1-23 6-29 3-4 5-7 3-7l-2-8c0-12 5-10 11 4l10 17c4 6 3 17-1 14-3-1-18 14-18 18 0 2 11-4 19-12 7-6 8-6 10-3 4 5 1 11-6 12-3 0-5 2-5 3 0 4-12 13-19 13h-8zm-245 12c8-7 10-7 10 0 0 5-1 5-8 5h-9zm13-6l8-6c7-3 7-2 7 3s-1 5-8 5c-5 0-8 0-7-2zm140-60c-8-10-1-15 9-6l7 2c1-1 2 1 2 4s-1 4-7 4c-4 0-9-2-11-4zm54-2c0-4 7-7 16-8 6 0 9-3 15-10l8-9c1 0 2 3 2 8s-2 7-4 7-3 2-3 5c0 5-4 6-21 8-9 1-13 1-13-1zm-91-13l-3-9c0-5 1-5 5-3l10 7 6 4 2 2c0 4-17 3-20-1zm57-9c-2-1-4-2-4-4s5-3 13-4l17-3c2-1 4 0 4 1l-4 2-7 4c-4 4-12 6-19 4zm-14-8c-5-5-4-6 3-5 3 1 5 3 5 6 0 5-3 5-8-1zm52 1c-5-1-5-7 0-7 1 0 3-2 3-5s2-4 5-4c4 0 5 1 6 6 0 9-4 13-14 10zm-80-16c-3-7-3-11 3-15 3-2 6-2 7-1l11 2c7 0 8 1 8 5l-2 4-2 4c0 3-1 3-14 4-7 1-9-1-11-3zm95-34l-15-4c-10-2-17-23-8-23 3 0 4 2 4 7s1 7 4 7l7 2 13 4 12 3c0 3-8 5-17 4zm-128-41c0-8 0-8 8-8 7 0 7 0 7 7-1 7-7 12-7 6 0-5-3-5-6 0-2 3-2 2-2-5zm94 0c-1-4-7-5-11-1-2 2-3 1-3-4 0-7 1-7 9-7 9 0 9 0 9 7 0 9-2 10-4 5zm62-28c0-3-1-5-2-5s-1-4 1-9c3-8 3-9-1-15-7-10-22-16-34-15-13 2-14 2-32-1-30-5-31-5-35-1-2 3-4 6-4 9l-5 6-12 4-4 2c-3 3-4 2-4-3s1-6 8-6 8 0 8-5c0-4 1-6 3-6s4-2 4-6c0-7 7-9 31-4 11 2 29 3 40 3 22 0 31 3 41 12 5 5 6 8 6 17s1 12 4 12c2 0 3 2 3 7 0 8-1 8-8 8-6 0-8-1-8-4zm0 0" fill-rule="nonzero" fill="#80523a" fill-opacity="1"/><path d="M189 882l-9-9c-9-6-12-14-5-13 8 1 9 0 8-13 0-9-1-13-5-15-6-4-7-10-2-10 2 0 4-1 4-3 2-3-5-15-9-16-3-1-6-3-8-6-4-4-4-4 2-7 6-4 7-3 14 3 6 7 8 7 12 5 4-3 4-3 3 2l-4 45-1 37zm143-5c-2-8-2-8 3-8s5 1 5 8c0 4-1 7-2 7-2 0-4-3-6-7zm156-4c0-10 1-11 5-11s4 1 3 10l-1 11-3 1c-3 0-4-2-4-11zm134 5c0-7 12-24 37-53 16-18 21-23 26-23 2 0-1 3-5 7-6 4-11 12-16 23-11 22-11 26-6 26l6-2c3-3 22-7 28-7 7 0-14 8-27 11l-13 3c-3 1-5-1-6-5l-2-6-5 5c-3 3-6 7-6 11l-3 11c-1 8-8 7-8-1zm25 2c6-5 18-7 21-4 1 1 1 2-2 2s-7 1-9 3-7 3-10 3h-6zm-316-79c0-7 3-13 6-13 2 0 3 3 3 8 0 6 0 8-4 8-2 0-5-2-5-3zm328-1c1-8 31-17 46-13 5 2 4 2-9 3-9 1-19 4-26 8-10 5-12 5-11 2zm-325-17c0-6 3-13 6-13 2 0 3 3 3 8 0 6-1 8-5 8-2 0-4-1-4-3zm2-22c0-7 3-13 6-13 2 0 3 3 3 8 0 6-1 8-5 8-2 0-4-2-4-3zm-137-13a378 378 0 00-2-23c3 0 5 13 4 26v11zm449-28l9-24c4-11 8-19 9-18 2 3-6 25-13 37l-5 5zm-313-17c-2-10-1-13 3-13s5 1 5 9c0 10-5 12-8 4zm-142-10c0-5 0-6 2-3 3 4 3 9 0 9l-2-6zm140-10c-2-9-2-11 3-11 4 0 4 1 4 8 0 9-5 11-7 3zm215 3c-3-3-1-5 4-5 4 0 6 1 5 2-1 3-7 5-9 3zm-358-14c0-11 0-14-5-18-8-7-7-11 2-15 10-5 16-3 14 7l1 13c2 5 1 7-3 10-2 3-4 7-4 10 0 4-1 6-2 6-2 0-3-6-3-13zm399-2c-8-9-26-11-34-2-5 4-9 5-9 2 0-5 14-11 24-11 9 1 20 7 22 12 2 4 0 4-3-1zm-96-37c0-7 1-8 4-8 5 0 5 2 3 11-2 8-7 6-7-3zm-162-18c-3-10-2-17 3-17 4 0 4 1 4 11 0 8-1 11-3 11-1 0-4-2-4-5zm169-16c1-6 2-11 4-12l2-8c0-6 1-8 5-8 5 0 5 1-1 22-3 11-6 16-8 16-3 0-3-2-2-10zm11-45l2-8 2-4c0-3 1-5 2-5 2 0 3-1 3-3s1-3 2-3l2-4c0-2 2-3 6-3s5-1 5-6c0-4 1-5 8-5 10 0 10 3 1 8-7 4-23 26-26 35-2 9-7 8-7-2zm-193-19c-5-9-3-33 3-33 3 0 3 4 4 19 0 18-2 23-7 14zm-10-33l1-18c0-9 1-10 3-5 2 7 0 22-3 27-2 3-2 2-1-4zm263-2c0-4 1-5 8-5 5 0 8 1 8 3s-4 4-8 5c-8 3-8 2-8-3zm0 0" fill-rule="nonzero" fill="#714736" fill-opacity="1"/><path d="M320 490l-4-13c-4-8-8-13-20-21-8-6-20-13-27-16-13-6-15-10-4-10 5 0 8 1 8 2 0 2 3 3 6 3 4 0 5 1 5 4 0 4 2 4 7 4 4 0 7 2 7 3s1 2 3 2l4 2 4 3c3 1 5 3 5 8 0 4 0 7 2 7l3 5c0 2 2 4 4 4 3 0 4 2 4 8 0 5-1 8-3 8s-4-1-4-3zm111-2l-6-2c-7 0-24-18-24-25 0-9-5-20-12-28-13-16-17-28-17-55 0-20-1-24-4-24-2 0-4-3-5-7l-5-6-2-5c0-5 1-5 6 2 6 8 11 8 7-1-2-3-3-5-5-4-1 1-1-2-1-5 1-7 9-11 9-5 0 2 2 3 6 2 8-1 9-2 4-6-4-3-12-27-12-35 0-4 1-6 3-6s3 1 3 3c0 5 11 25 16 29 9 7 21 13 30 14 5 0 10 2 11 4 2 4 16 3 24-1 5-3 19-3 21 0 1 1 6 1 13-1 11-2 13-3 26-20l15-22c2-9 8-8 8 2 0 4-1 8-3 8-1 0-2 2-2 5s-2 7-4 9c-16 18-23 28-20 28 8 0 3 33-9 62l-6 14c-2 5-8 15-13 21l-8 12h7l7 1-2 12c-2 20-14 30-39 32-10 1-16 0-17-2zm32-14c1-3-1-5-3-6s-3-4-3-5c0-3-2-4-7-4-4 0-7 1-7 4 0 1 0 3-2 3l-1 5c0 5 1 6 4 6s4 1 2 2l-3 3c0 4 19-4 20-8zm-44-42c3-1 6-2 7 0 4 3 15 1 24-2 5-3 7-4 6-8s1-7 6-10c3-2 6-7 7-11s3-7 4-7c2 0 2-10 0-12l-4-9-1-8h-19c-15 1-19 0-24-3-4-3-9-4-14-3-4 1-9 0-10-1-2-2-3-2-1 2 1 6-7 6-11 0l-4-4c-3 0-2 43 1 48 3 6 25 31 28 31l5-3zm49-85c0-3 14-3 17 0 2 2 4 1 6-2l4-6h-14c-7-1-15 0-17 2-6 2-36 2-37-1-2-2-6-4-16-7-5-1-5-1-4 2 1 2 4 3 7 3l8 2c7 7 46 13 46 7zm130 131c0-9 3-10 8-1 4 9 4 9-3 9-4 0-5-1-5-8zm-20-38c0-10 2-10 7-1 5 8 5 9-2 9-5 0-5-1-5-8zm-325-20l7-8 2 8c0 7 0 8-7 8h-6zm280-46c8-7 8-7 8-2 1 6-2 9-10 9-6 0-6 0 2-7zm0 0" fill-rule="nonzero" fill="#714736" fill-opacity="1"/><path d="M528 361c1-4 0-7-2-7l-2-8c0-5 1-8 3-8s4 2 4 3c0 2 1 5 3 6 5 4 4 10-2 15l-5 5zm-92-55l-6-6c-2-3-1-3 10-3l20 2h11c5-3-28-9-49-9-11 0-16-1-18-3-4-6-4-10 2-15 4-2 6-2 6-1 0 4 12 4 20 1 4-2 7-4 7-6s8-2 10 1h4c6-2 14 2 16 6 0 3 6 7 14 11 13 6 16 9 12 16-2 3-4 4-15 3-10-1-14 0-16 3-4 4-23 5-28 0zm-69-42c0-10 5-12 8-3 2 9 1 12-3 12s-5-1-5-9zm170 4l5-11c4-7 7-22 5-28s-6-6-9 1c-5 9-7 6-3-5 3-9 4-10 10-10 7 0 8 1 9 8 4 21-4 50-14 50-4 0-4 0-3-5zm-76-6c-2-2-2-2 1-3 4-2 8 0 8 3s-4 3-9 0zm-25-4c0-1 3-3 7-3 2 0 5 2 5 3s-3 2-7 2-6-1-5-2zm54-7c-3-2-7-3-10-3s-5-3-7-12c-5-17-11-30-15-29-1 0-7 7-12 15-12 20-19 28-20 25 0-2-4-3-8-3l-21-6c-13-7-14-8-17-17s-3-10-6-7c-2 3-2 8-2 19 2 14 1 16-2 16-8 0-9-31-2-46 2-4 4-6 10-6s7 1 8 8l-1 10c-3 5 1 11 8 16 15 9 41 5 41-6 0-4 1-5 4-4 2 1 4-1 6-6 2-4 4-7 7-7 2 0 4-1 4-4 0-4 1-4 7-4 8 0 11 4 18 26 1 6 5 12 9 14 7 6 26 8 33 4 4-2 4-2 4 1-2 6-25 10-36 6zm43-55c0-3-17-8-30-8-6 0-8-1-8-3 0-4 3-4 24 0 7 2 7 1 7-4l2-15c1-8 0-10-5-15-10-9-19-12-42-12-11 0-28-1-37-3-18-4-21-3-27 11-2 6-4 8-10 9-7 1-22 14-22 18 0 2 6 2 14 1l20 2c4 2 1 2-15 2l-24 2c-3 1-4-1-4-7 0-5 1-9 4-9l3-4c0-5 10-13 18-14 5-1 7-3 8-8 1-3 3-8 6-11 4-5 5-5 20-3l49 2c32 0 33 0 44 6 10 7 11 8 12 20 0 6 3 16 6 20 3 5 5 13 5 18 0 9 0 9-9 9-6 0-9-1-9-4zm0 0" fill-rule="nonzero" fill="#714736" fill-opacity="1"/><path d="M446 189l-12-6c-5-1-8-3-8-4 0-3 12-2 23 3 7 3 13 4 18 3 18-4 23-4 23 0s-11 8-28 8c-9 0-14-1-16-4zm0 0" fill-rule="nonzero" fill="#714736" fill-opacity="1"/><path d="M334 881l-5-12c-5-11-5-20-1-38l6-41c3-35 4-40 8-40 2 0 3 2 3 6 0 15-7 77-9 86-3 10-2 12 2 22 6 14 6 20 0 20-2 0-4-1-4-3zm-150-6c-4-4-4-6-2-8s3-9 3-19c0-13-1-15-4-16-4-2-4-2-1-6 5-5 5-7-2-16-6-9-5-12 3-7 4 3 6 3 9 1a531 531 0 000 55l-1 21-5-5zm304-11c0-14 1-15 5-15s4 1 4 11c-1 16-2 20-6 20-2 0-3-4-3-16zm137 9c0-2 1-5 3-6 4-3 4-2 2 6-2 6-5 6-5 0zm25-15c-1-3-2-5-5-5l-5-1a624 624 0 0135-40c-6 6-19 33-23 46-2 5-2 5-2 0zm-160-24c0-8 1-10 5-10 5 0 6 5 3 15-2 9-8 6-8-5zm181-41c1-2 8-3 15-4 10-1 10 0 4 1l-15 4c-5 1-6 1-4-1zm-472-49c-1-8-2-15-1-16 2-1 4 14 3 22 0 6-1 5-2-6zm291-3c0-12 1-16 4-16s5 7 5 21c0 9 0 11-4 11s-5-2-5-16zm-153-3l-1-17c0-12 0-13 4-13s5 1 5 17c0 14-1 18-3 18s-4-2-5-5zm-2-41l-3-41c-1-34 0-36 4-36s4 2 4 24l2 42c1 14 1 17-2 17-2 0-4-3-5-6zm322 1l4-11v4c0 4-2 8-3 10s-2 1-1-3zm-110-15c0-1 2-2 5-2l6 2c0 1-2 2-5 2l-6-2zm-355-15c1-5 0-9-2-11-1-2-1-4 1-8 7-12 10-10 11 6 1 9 0 11-6 15l-6 5zm354 3c0-4 13-11 18-10 3 1 2 1-1 2-3 0-6 1-7 3l-6 6c-3 2-4 2-4-1zm33-7c-4-2-5-3-3-3l8 3c5 4 4 4-5 0zm-89-12c0-10 1-12 5-12 3 0 4 2 4 7 0 9-2 16-5 16s-4-3-4-11zm0 0" fill-rule="nonzero" fill="#54362a" fill-opacity="1"/><path d="M493 629c0-10 3-25 11-49l4-21c0-8 7-24 13-30l7-9 6-5 6-2c2-3 20-13 28-17 4-2 14-3 21-3 12 0 13-1 12-6l-3-5-2-4-2-4c-4-1-14-24-14-31s2-8 6-2c5 8 22 42 24 49 4 9-1 12-18 12-10 0-15 1-32 10-11 6-21 11-22 13-8 6-20 29-22 39l-8 34-8 32c-2 12-7 11-7-1zm-165-34c-2-8-3-21-3-27s-2-19-5-28c-4-16-5-18 0-45 2-14-8-29-27-42l-24-14c-4-2-11-5-14-8-5-4-6-5-3-8 2-1 3-4 3-5 0-5 20-22 31-26l17-11 6-6v9c0 7 0 8-7 8-4 0-6 1-6 3 0 3-5 6-12 6-2 0-4 1-4 3 0 1-3 6-7 9-12 11-12 14-1 17l10 5 4 2 7 4 7 5c2 0 2 1 2 2l4 2c2 0 3 2 3 6s1 5 5 5c11 0 18 25 13 47-2 11-2 15 1 26l6 33 3 32c1 10 1 12-2 12-2 0-4-4-7-16zm102-105l-9-4c-8 0-35-37-45-59-4-11-9-30-9-39 0-5-1-7-4-7-4 0-9-9-9-17 0-4-1-6-5-6-7 0-11-4-11-10 0-9 4-8 15 5l13 15 1-4c0-5-3-11-9-18-6-9-8-12-6-14s5 0 11 7c7 7 9 8 9 5 0-2-2-7-5-11-5-9-3-18 3-16 5 1 5-3 1-21-5-16-5-36-1-36s6 7 6 17c0 18 17 46 27 46 5 0 25 6 29 10 4 3 22 3 28-1l23-2 17 1 9-11 14-16c3-4 7-12 9-19l9-23c2-5 6-13 6-17 1-4 3-7 5-7 5 0 4 15-1 26l-10 24c-2 7-7 20-11 27-6 10-7 14-5 14s4 4 5 9l4 10c5 2 4 7-3 16-4 5-7 11-7 13 0 4 1 3 10-4 8-7 11-8 13-5 1 2-2 6-11 14-8 7-12 13-12 16 0 5 1 5 11-3 17-14 16-13 16-5 0 4-2 7-4 8l-9 8c-4 5-7 6-14 6h-9v-23c0-27-3-21-6 18-5 46-17 71-40 80-12 5-32 6-39 3zm34-12c7-4 13-10 15-19 2-5 2-7-1-7l-8 4c-3 2-5 3-6 2-3-4 1-15 10-27 9-14 19-33 27-56 4-12 8-30 7-32l-12 9c-10 11-17 14-17 7 0-5-3-9-5-5-1 4-33 3-45-1l-13-5-9-1c-4 0-6 0-6-3 0-4-12-12-16-12s-7 13-7 42c0 24 5 37 18 52 7 8 12 19 12 28 0 7 17 25 24 25 2 0 5 1 6 3 2 2 17 0 26-4zm105-56c0-10 4-9 8 1 3 7 3 7-3 7-5 0-5-1-5-8zm0 0" fill-rule="nonzero" fill="#54362a" fill-opacity="1"/><path d="M437 304c-4-5 0-7 13-5 10 1 11 2 9 5-4 4-19 4-22 0zm47-3l-5-4c-1-2-5-3-9-3l-22-4c-10-2-19-3-28-2-14 1-17 0-17-8 0-3 2-4 8-4s8 1 7 4c0 3 1 4 8 4 5 1 8 0 8-1 0-4-2-5-6-3-2 2-2 2-2 0s4-6 9-8c10-6 15-7 15-4 0 2 3 2 7 1 5 0 7 1 10 6 2 4 7 7 10 8 8 2 13 6 14 13 1 5-2 7-7 5zm-31-16c2-3-9-6-12-4-2 2-1 3 2 4 6 2 9 2 10 0zm-13-27c-1-1 0-3 2-3s4 2 5 3c0 1 0 2-2 2l-5-2zm-76-17c-4-34 8-65 19-52 2 2 3 18 2 32 0 9 21 18 36 14 10-3 16-6 12-8s-1-5 4-5 10-8 8-13c-1-2 0-5 2-8 4-6 4-8 0-8-2 0-3-2-3-3 0-2-5-5-13-7-19-7-8-8 13-1 13 4 18 4 27 3 17-3 37-2 55 3 9 2 17 4 18 3l-5-11c-4-8-6-15-6-21 0-9-1-11-7-15-13-10-20-11-41-9-11 1-25 0-32-1-28-5-27-5-32 1-2 3-5 8-5 11-1 5-3 6-9 7-6 2-11 5-16 12-9 11-10 12-3 12 4 1 3 1-2 2l-9 3c-2 2-3-1-3-7 0-8 2-11 10-20 6-6 10-12 10-13 0-2 3-3 6-3 4 0 5-1 5-7 0-3 2-8 6-11 4-4 6-5 24-3 11 0 21 2 23 3 1 1 8 1 17-1 17-4 40-2 56 6 13 6 15 10 15 31 1 9 2 16 4 19 2 2 3 6 3 9 0 4 1 6 3 6 3 0 4 2 4 10 0 9-1 10-2 6l-4-6c-5-3-5 5-2 13 4 10 4 21 0 21-2 0-4-3-5-6-2-10-6-9-11 3-5 14-12 18-29 18-19-1-32-8-35-21-4-11-9-23-12-23s-9 7-17 20c-9 13-19 17-35 14-20-4-27-10-29-25l-1-12-4 7c-3 7-4 17-1 34 1 11 1 11-3 11s-5-1-6-14zm162-1c7-7 14-25 9-27v-6c3-7 3-7-3-8-2 0-3 0-2-1 6-2 3-5-8-7-16-4-34-3-41 1l-10 3c-2 0-1 2 2 9l6 19c1 6 3 12 5 14 5 5 15 9 26 10 8 0 11-2 16-7zM361 128c0-5 21-27 40-43 10-8 11-9 28-9 9 0 17 0 16-1s-6-2-12-1c-14 1-12-4 4-10l13-4 22 5c38 9 41 10 41 13 0 2-7 3-34 3h-33v5c0 5-1 6-8 6-12 0-39 11-39 17 0 3-8 7-17 9-5 1-8 3-8 5l-2 3c-1 0-2 1-2 3s-2 3-5 3-4-1-4-4zm202-16l-12-8c-5-3-11-5-14-5-4 0-6-1-6-4 0-1-2-3-5-3s-4-1-4-7 0-6 5-3c3 2 7 3 9 2 4-2 16 4 27 14l10 8c2 0 2 1 2 2s-2 2-4 1c-4-1-5-1-4 2 2 4 2 4-4 1zm0 0" fill-rule="nonzero" fill="#54362a" fill-opacity="1"/><path d="M330 869c-6-16-6-16-2-29a485 485 0 008-134l-3-69a349 349 0 00-7-68c1-2-1-15-4-27-6-22-6-23-3-35 4-15 2-23-5-36-7-11-40-34-49-34-2 0-5-3-9-6-5-5-6-6-2-9l4-6c0-4 20-20 31-25 9-5 14-9 20-17 7-11 31-35 32-33l12 12c8 11 10 13 10 22l-3 18-7 22-8 32c-5 16-4 43 1 46 3 2 3 47 1 133 0 29 1 50 2 56 5 18 7 61 5 84-3 21-3 26-10 60-4 21-4 30 0 40 5 12 4 18-2 18-4 0-6-2-12-15zm80 13c0-2-4-5-9-7l-14-9c-3-3-8-6-12-7-5-2-7-4-7-11-1-8-1-8 7-8 4 0 11 1 15 3 15 6 36 9 47 6 6-2 15-3 21-3h10v9c0 8-1 9-4 9-9 0-5 4 4 6 8 1 9 2 9 8v6h-34c-25 0-33 0-33-2zm0 0" fill-rule="nonzero" fill="#191a1d" fill-opacity="1"/><path d="M479 874c0-17 4-48 8-58 3-8 2-12-1-36-3-14-4-31-5-36 0-9 0-10-4-7l-11 2c-6 0-7 1-9 7-4 13-5 24-4 32 2 7 2 7 15 9s13 2 13 9c0 9-3 12-14 12l-12 2-6 3c-3 1 0 2 6 3 9 1 11 3 12 7 2 7 0 15-4 17-4 3-54-3-59-7-4-4-4-16 1-21s2-7-8-4c-19 5-27 2-27-11 0-6 0-7 6-7 7 0 7 0 6-9l-3-19c-19-74-24-125-16-153 3-8 4-9 9-9l6-1-4-21-4-35c0-8-2-15-3-16l-3-20v-18h9c9-1 11 0 15 14 1 4 3 10 5 11 2 2 3 6 3 9s2 6 3 6l2-8c0-5 1-8 3-8s2-3 2-9c-1-5 0-11 1-12 6-6 3-8-9-8h-13v-11c0-7 1-12 3-13s2-1 0-2c-4-2-10-13-10-20 0-3-1-6-3-8l-3-6c0-2-1-3-2-3-2 0-3-10-3-26 0-24 1-25 5-25s5 1 3 8c-1 10 2 28 8 43 6 12 27 44 34 51 12 12 30 15 45 9 23-10 36-35 40-81a400 400 0 0111-65l-7 3c-4 3-10 5-13 5-5 0-5-1 2-5 5-2 10-6 10-7l6-5c4-1 24-40 24-46l7-18c7-15 8-32 4-48-1-7-1-8-9 13-6 16-12 22-27 22-20 0-33-10-41-30-4-12-7-17-10-17-1 0-6 6-11 15-14 21-32 28-53 19-11-6-14-10-16-28l-3-14c-2-1-5 17-5 31 0 34 9 88 17 97 5 6 5 9 0 4-5-4-10-3-10 2 0 2-1 4-3 4-4 0-10-6-10-11l-9-20c-11-24-16-39-16-54 0-14 2-20 14-33 14-17 18-23 18-28 0-6-4-6-6 0 0 2-2 4-4 4-5 0-9-14-7-25l3-23c2-15 10-30 15-30l6-6c5-9 13-14 15-10 0 2 2 2 4 0s8-4 14-6l9-5c0-3-5-2-8 1-2 2-4 2-6 0s-1-4 4-8c8-7 36-18 42-16l18 4c14 3 12 4-8 4-7-1-11 0-11 2s8 2 26 2c35-1 35-1 45 6 4 3 11 5 15 5 7 0 16 4 14 7-1 1 1 3 3 3l12 8c4 4 5 7 3 6-3-2-4-1-3 2l2 8c0 3 1 4 3 4 2-1 3 0 2 4 0 4 1 6 4 7 4 1 4 2 3 8-1 4 0 7 3 9 6 3 6 7 2 5-2-1-4 2-5 11 0 6-3 14-6 17-2 3-6 9-7 13-6 14-8 15-12 7l-4-7-2 5c-1 4-1 8 2 13l3 9 6 15c5 11 6 15 5 27-2 17-7 28-24 47-10 12-14 17-14 23 0 5 0 7-4 7-3 0-5 4-8 20-5 19-5 21-2 39 4 20 8 23 5 4-2-17-2-24 1-22 2 0 8-3 13-9l12-10c4 0 0 7-11 18-8 8-12 13-12 17l1 5 16-12c8-8 15-12 16-11 5 5 54 105 54 110 1 6 1 6-15 7-15 2-19 3-46 18-17 10-33 33-33 49 0 4-2 14-5 23-12 37-12 33-12 142l-2 128-2 25h-7c-8 0-8 0-8-10zm-41-125c1-9 1-10-4-11-4-1-4 0-3 7l1 13c0 7 4 1 6-9zm-40-66l-6-27c-2-11-3-13-7-13-5 0-6 5-1 10 2 1 3 6 3 10s3 13 6 19l6 14c0 2 0 3 1 2l-2-15zm81 10c0-6 0-6-2-2-3 6-3 8 0 8l2-6zm3-79c4 0 6-3 10-16a397 397 0 0015-56c1-1-1-2-4-2-5 0-6-1-6-8s1-8 8-8c6 0 8 1 8 5 1 3 2 3 6-3 4-7 4-10 3-40l-1-32-6 22a356 356 0 00-8 30c-2 0-5 2-8 5l-9 4c-5 0-13 12-13 20 0 6-1 7-7 8-4 1-6 3-8 8 0 3-3 8-5 10-3 2-5 5-5 7s-2 3-5 3c-4 0-6 1-6 3l2 4c2 0 3 3 3 8 0 4-1 7-3 7s-3 5-3 15c0 7 0 12 1 10 0-3 3-4 8-4 6 0 8 0 8 4s1 5 8 5c6 0 8 0 8 5l2-5c2-8 3-9 7-9zm-98 9l-3-5c-2 0-3 2-3 5 0 2 2 4 4 4s2-2 2-4zm26-42c0-2-1-3-2-3-2 0-3 4-2 8 0 8 0 8 2 3l2-8zm16-28c0-3-1-4-3-3l-2 4 2 4c2 0 3-2 3-5zm98-310c5-4 10-12 12-23 2-8 2-8-4-6l-26 1h-20v6c0 4 1 5 2 5 1-2 7 2 7 5l-5 2c-6 0-9-3-9-12 0-3 0-6-2-6s1 17 5 22c8 9 30 13 40 6zm-95-10c7-3 7-6 1-7-3-1-4-3-4-9 0-5-2-9-3-9l-2 3c1 8-1 9-3 3l-3-7-1 7v7l-3-6c-2-7-6-7-9 0-2 4-2 4-7-3l-5-6-3 6c-4 8-3 13 4 18 12 8 25 9 38 3zm14-15c4-8 3-10-5-10-9 0-11 6-4 11 5 4 7 4 9-1zm82-20c4 0 8-2 8-3 0-3-25-7-39-6-20 1-21 5-2 7 9 1 16 3 16 4l4 1 13-3zm17-18c-4-8-5-12-3-20 2-16-2-22-14-28-16-7-30-8-51-4-15 3-19 3-22 1-1-2-5-3-9-3l-13-1c-10-2-18 4-18 14 0 6-1 7-6 7-3 0-5 1-5 2 0 2-5 8-10 14l-10 12c0 2 12 3 26 4 19 1 30 2 40 6 12 4 15 5 32 2 20-3 34-1 56 5 12 4 14 2 7-11zm-97 9c3-3-18-8-37-9-30-2-39 2-24 9 5 3 12 4 33 3l28-3zm116-31c3-2 3-4 2-5l-4-12c-1-6-3-11-4-11l-2-4c0-3-2-8-6-11-4-4-6-5-9-3l-10 2c-7 0-4 8 5 10 12 4 17 11 19 25 2 13 2 14 9 9zm-169-55c0-4-3-2-6 3-3 4-3 4 1 1 3-1 5-3 5-4zm0 0" fill-rule="nonzero" fill="#191a1d" fill-opacity="1"/><path d="M507 237c0-1 2-3 4-3 3-1 4 0 4 2-1 1-3 3-5 3-3 1-4 0-3-2zm39 435c0-3 7-9 10-9s-1 5-5 8c-4 2-5 2-5 1zM370 358c0-3-2-6-3-6-5 0-16-17-14-20 1-2 5 3 11 10 6 8 9 11 10 9 1-5 4-5 4 0 0 8-2 14-5 14-2 0-3-2-3-7zm158 2c-1-2 0-5 3-9 4-4 4-4 6-1 0 3 0 6-3 9-4 3-5 4-6 1zm-80-8v-3c0-2-4-2-9-1-7 1-12-1-24-6-9-4-17-9-17-10-3-4 8-3 13 1 2 3 4 3 5 2 1-2 3-1 9 1 8 5 28 5 34 1l13-2c10-1 11-1 11 4-1 8-3 9-18 12-16 3-17 3-17 1zm7-75c0-7 1-7 5-3 5 5 4 5-1 7-4 1-4 0-4-4zm-13-4l3-4c2 0 3 1 2 2 0 2-2 4-3 4-2 1-3 0-2-2zm0 0" fill-rule="nonzero" fill="#191a1d" fill-opacity="1"/><path d="M337 873c-3-9-3-15-3-30 2-19 2-22 6-40a288 288 0 002-111c-2-4-3-16-2-62 1-72 2-114 0-123 0-8-4-8-4-1l-2 6a409 409 0 012-27c0-5-1-8-2-9-2-1-1-15 3-33l15-55c4-5 4-15 0-20-3-5-3-6 0-9 3-2 4-2 9 6l6 10 1-9c2-6 1-9-6-17-10-13-11-15-8-16 1-1 5 4 10 10 8 10 9 10 10 6 2-3 0-8-3-15l-6-12h6c4 1 5 0 4-1-4-2-9-23-9-31l1-12 1-6 2 5 3 13 5 19c3 6 4 12 3 12-2 2-6 48-6 74 0 14 1 20 3 20 2 1 3 2 2 3s1 5 4 9c5 6 5 9 3 10-2 2-2 2 0 2l2 2c0 5 1 7 7 9 4 2 5 3 3 5-3 4-3 7 3 12l4 6c-1 1 2 2 7 3 6 1 8 2 6 4-3 3 10 12 13 9 2-1 2 10 2 36l-1 38-6 5c-4 3-7 7-7 9l-14 47-4 12-7-28c-13-55-16-72-14-95 0-7-5-18-8-17s-2 21 1 25l3 21c1 15 13 78 16 83a2493 2493 0 0126 129c3 13 2 16-2 10-1-3-4-4-5-4-1 1-2 0-2-2 1-8 0-13-2-11-2 1-3 0-2-1 0-5-1-9-3-9s-3-4-3-11-2-13-5-17l-4-10-6-12-5-13c0-2-1-4-3-5-1-1-1-2 1-3l3-3c0-2-1-2-2-2-1 1-3-1-4-5s-2-6-4-5l-1 5v3c-1 0-2 3-2 7l2 8 1 5c0 11 2 25 3 29 3 5 4 8 6 22a189 189 0 013 16l6 5c6 2 6 2 1 3-4 1-5 1-2 5 2 3 2 3 0 1-3-1-3 0 0 5 2 3 3 9 3 12l1 4c3 0 3 8-1 11-2 2-2 3 0 3s3-1 3-2l2-3c2 0 3 2 3 4s1 3 4 2 5 0 5 1 1 2 3 2 4 2 4 3c1 2 1 1 1-2 1-3-1-5-2-5l-1-2c2-4 9 4 7 9l1 6c2 0 2 0 1-1-1-2 0-3 1-3s2-4 1-10c-1-7-1-8 2-4l3 23 3 16 2 1 8 2c5 0 7-1 7-5 0-3-2-4-5-5-5 0-5-2-5-13 0-7 1-20 3-29 4-17 5-29 1-18-3 11-4 19-6 38-1 21-5 28-5 12 0-14-2-26-3-30-1-2 0-3 3-2 2 0 4-1 4-3 1-1 0-2-3-1s-3 1-2-2c1-2 0-4-1-3-2 2-3 1-9-33-4-21-8-64-5-48 3 14 8 29 11 33 5 5 14 10 16 8l-1-1 3-4 4-7 1-7c0-3 2-4 4-4s3 0 1 1c-1 1-2 2-1 3l-4 16-4 21c0 6 0 5 3-5s7-22 15-40c3-8 13-40 14-49s-5 8-15 39c-4 11-8 15-8 8 0-2-2-4-4-5s-2-2 0-5l5-2 3-5 5-9c4-4 5-16 4-31 0-4-1-5-4-4s-6 0-6-1h-4c-2 1-1 0 0-2 3-4 3-4 0-6-2 0-4-3-4-5s-1-2-1-1c-1 2-3 2-5 2-1-1-3 0-3 2s-2 5-4 6c-3 2-3 2 0 2 5 0 10 6 6 8l-1 6c1 2 1 4-1 4l-2-2c0-1-2-3-4-3-2-1-3 0-3 2 1 7 0 8-6 4-7-4-10-9-4-7 5 2 6-2 2-6s-4-7 0-5c4 1 4 0 4-14 0-5 1-9 2-9 4 0 2-6-2-9-3-2-3-2 2-1l4 1-5-6c-4-4-5-6-3-9 2-1 4-2 5-1 2 1 0-4-5-9-4-5-2-8 3-4 2 1 4 2 5 1l-1-1c-2 0-3-2-3-4l2-3c1 0 2-2 1-3-1-3 1-4 6-4 6 0 7 0 4-2l-1-2c2 0 1-1-1-3-3-1-2-2 2-1 5 2 12-5 12-13 1-5 2-7 5-7 9 0 10-1 10-4l-2-4c-2 0 0-5 4-9l7-10 5-5c4-2 5-2 4 1-1 2-1 3 2 2l3-3c0-1 2-3 4-3 3-1 5-3 5-5l5-24c4-11 6-22 5-24-1-5-1-5 1-2 1 2 2 0 2-7-1-6-2-10-3-8-2 3-2 3-2-7l-4-24c-3-18-3-20 3-42 4-21 6-23 10-24 9-1 11 3 6 13-5 11-3 15 4 7 3-4 4-5 5-1 1 2-1 6-5 11-5 5-7 10-7 15v7l11-11c6-6 11-9 11-8l-4 7c-3 2-3 3 0 1l-8 9c-11 10-14 20-7 22h3c-2-2 1-5 12-14 3-2 3-1-1 12-4 15-6 18-6 10 0-4-1-4-3-2l-2 18c0 44 2 73 4 77 2 3 3 2 6-8l5-18c1-4 2-6 3-5a216 216 0 01-11 46l-2 2c-1 0-6 6-11 14-9 12-10 16-10 25 0 8-1 10-2 7v4c0 5 0 8-1 7-2 0-2 1-1 3 0 3 0 5-2 5-1 0-2 1-1 2 1 2 0 2-1 2-3 0-10 26-12 44l-3 20v90l5 35c4 26 4 29 0 39l-5 22-3 35v6h-28c-17 0-28 0-28-2 0-1 4-2 9-2s9-1 10-3 1-2 2 0c2 3 10 4 10 1 0-1-1-2-3-1s-4 0-5-2c-1-4-10-5-10-2 0 2-2 2-4 2-3 0-5-1-5-4 0-4 1-5 4-2 2 2 4 2 5 1 1-2 3-3 6-4 2-1 3-3 3-5s2-3 5-3c2 0 4-2 4-3 0-2-4-2-17 1l-13 2c-5 0-10 2-10 3-2 1-3 1-4-1s-16-6-33-10l-5-2-4-2c-3 1 6 7 10 7l8 5c8 7 19 14 19 11l2-2c2 0 3 2 3 5s1 6 3 7c2 0 3 2 3 3 0 2-14 2-41 2h-41zm122-41c3-3-1-9-4-7s-4 10-1 10l5-3zm-32-7c1-4-1-6-6-7-8-1-15 3-11 7 2 3 10 5 14 5 2-1 3-3 3-5zm22-24c-1-1 3-1 10-1 8 1 12 0 14-2 2-3 1-3-5-4l-14 1c-5 0-6-1-6-4l-2-6c-2-1-3 1-3 4s2 6 3 6l1 6c-2 4-1 5 1 4 1-1 2-3 1-4zm18-72c-1-2 0-4 2-5l3-4c-1-2 0-4 2-4 3-2 4-6 1-6-2 0-2 1-1 3s1 2-2 0c-3-3-4-2-7 5-2 6-3 10-1 12 3 3 5 3 3-1zm-94-90c-1-11-5-14-5-3 0 6 2 11 5 11v-8zm22-76c-2-11-4-8-2 4 1 5 2 8 3 7l-1-11zm22 7c7-3 4-5-4-5-5 0-7 1-6 3 1 3 5 4 10 2zm-23-18a1369 1369 0 00-6-22c-1 10 2 23 4 23l2-1zm21-6c1-2 4-5 8-7 5-2 5-2 2-3-2-1-4-3-4-5 0-5-2-7-6-5-3 1-3 1 0 3 2 2 1 2-2 1-7-1-9 7-4 11 3 3 3 3 1 2-3-1-4 0-4 3 0 6 8 6 9 0zm12-43c1-5 0-6-6-6-8 0-10 3-7 9 4 7 12 5 13-3zm-31-33l4 4c3 4 3 4 2-1-1-3-3-5-6-5s-4 2-4 5c0 4 1 4 1 1l3-4zm-68 389l-1-10c0-4 1-4 2 3 2 10 2 13-1 7zm0 0" fill-rule="nonzero" fill="#0c0c0d" fill-opacity="1"/><path d="M408 788c0-1-2-2-5-2-5 0-5-1-1-6 4-4 6-4 6 1 0 3 1 5 2 5l2 2c0 2-1 2-2 2s-2 0-2-2zm9-9l3-3c2-1 3 0 3 2s-1 3-3 3-3 0-3-2zm15-101c-2-4-2-5 1-2 2 2 3 2 5 0s4-2 5-1-5 8-7 8l-4-5zm-21-3c-2-5 0-6 3-2 2 1 2 3 1 4-2 1-3 0-4-2zm-93-156l2-13c2-2 2 1 1 9-2 16-3 17-3 4zm278-21h8c2 1 0 1-4 1s-6 0-4-1zm-278-34c-3-3-4-5-3-5 2 0 2-3 0-10s-3-12-1-13c2-2 2-2 3 6l2 4 2 9 2 11c3 3 2 3-5-2zm235-1l3-15 4-20v-8l2 9c2 8 2 11-3 22l-6 12zm-245-30c-3-7-6-19-4-22 2-4 3-4 4 1 3 16 3 26 0 21zm38-79c-2-4 1-6 4-3v4c-1 1-3 0-4-1zm16-143c-2-3 2-9 6-14 3-2 4-2 4 3s-5 13-8 13l-2-2zm89-14l1-9c3 0 7 4 7 7s1 3 2 0 5-7 7-7c4 0-1 9-5 11-3 0-7 2-8 4-3 3-4 2-4-6zm95-26l-1-11c-1-15-2-16-4-16l-1-2c1-2-5-9-8-9l-9-3c-18-8-43-8-60-1-3 1-5 0-5-3-1-3-3-5-6-5-2 0-4-1-5-3-2-5 8-5 12 0l5 3c1 0 1-2-1-4-3-3-2-4 25-3 25 0 29 0 29-3 0-2 2-3 5-3 6 0 14-5 9-5l-3-2c0-2 18 2 25 6 2 2 5 6 6 10l3 6 4 12 3 11c1 0 2 3 2 8 1 7 0 9-4 11-3 3-8 4-10 4-2-1-6 0-8 1-1 2-3 2-3 1zm-151-26c-1-5 0-11 2-17l4-9-5 4c-3 2-7 6-9 10-5 7-11 8-11 1 0-6 7-20 7-15 0 4 9 5 10 1 3-5 13-9 24-10 11 0 11 0 7 5-4 4-3 4 6 4 7 0 12 1 14 4 2 2 2 3-4 1-10-3-21-2-25 2-5 5-7 5-8 0-1-2-1-1-2 3v7l-2-7-1-7-2 7c-2 4-1 7 1 7 1 1 1 2-2 4-3 3-3 4 0 6 2 1 2 2 0 4-2 3-3 1-4-5zm-26-3c-3-2-2-11 1-15s4-4 2 5c-1 12-1 12-3 10zm108-41l-7-5c-6-2 0-3 19-2l20 1-8 6c-11 6-17 6-24 0zm7-13c0-1 2-3 4-3 6-2 6 1 1 3s-5 2-5 0zm0 0" fill-rule="nonzero" fill="#0c0c0d" fill-opacity="1"/></g></svg>